<?xml version="1.0" ?><svg enable-background="new 0 0 32 32" version="1.1" viewBox="0 0 32 32" xml:space="preserve" xmlns="http://www.w3.org/2000/svg" xmlns:xlink="http://www.w3.org/1999/xlink"><g id="Outline_Color_copy_2"><path d="M28,1c1.654,0,3,1.346,3,3v24c0,1.654-1.346,3-3,3H4c-1.654,0-3-1.346-3-3V4c0-1.654,1.346-3,3-3H28 M28,0H4   C1.8,0,0,1.8,0,4v24c0,2.2,1.8,4,4,4h24c2.2,0,4-1.8,4-4V4C32,1.8,30.2,0,28,0L28,0z"/><path d="M21.116,24.314h3.198c0-9.169-7.459-16.633-16.627-16.633v3.189C15.09,10.869,21.116,16.902,21.116,24.314z M9.901,24.32   c1.226,0,2.217-0.985,2.217-2.206c0-1.214-0.991-2.211-2.217-2.211c-1.221,0-2.214,0.996-2.214,2.211   C7.686,23.335,8.679,24.32,9.901,24.32z M15.463,24.315L15.463,24.315h3.202c0-6.056-4.926-10.981-10.979-10.981v3.188   c2.076,0,4.029,0.811,5.498,2.283C14.653,20.271,15.463,22.232,15.463,24.315z"/></g></svg>