<?xml version="1.0" encoding="utf-8"?>
<!-- Generator: Adobe Illustrator 19.1.0, SVG Export Plug-In . SVG Version: 6.00 Build 0)  -->
<svg version="1.1" id="Layer_1" xmlns="http://www.w3.org/2000/svg" xmlns:xlink="http://www.w3.org/1999/xlink" x="0px" y="0px"
	 viewBox="0 0 982 696" style="enable-background:new 0 0 982 696;" xml:space="preserve">
<style type="text/css">
	.st0{clip-path:url(#SVGID_2_);fill:#FFFFFF;}
	.st1{clip-path:url(#SVGID_2_);}
	.st2{clip-path:url(#SVGID_4_);fill:none;stroke:#808080;stroke-width:0.2;stroke-miterlimit:10;}
	.st3{clip-path:url(#SVGID_4_);fill:none;stroke:#000000;stroke-width:0.3;stroke-miterlimit:10;}
	.st4{clip-path:url(#SVGID_6_);}
	.st5{clip-path:url(#SVGID_6_);fill:none;stroke:#000000;stroke-width:1.5;stroke-miterlimit:10;}
	.st6{font-family:'Helvetica';}
	.st7{font-size:12px;}
	.st8{clip-path:url(#SVGID_8_);}
	.st9{clip-path:url(#SVGID_8_);fill:none;stroke:#000000;stroke-width:1.5;stroke-miterlimit:10;}
	.st10{clip-path:url(#SVGID_10_);fill:none;stroke:#000000;stroke-miterlimit:10;}
	.st11{clip-path:url(#SVGID_12_);fill:#0433FF;}
	.st12{clip-path:url(#SVGID_12_);fill:none;stroke:#0433FF;stroke-width:1.5;stroke-miterlimit:10;}
	.st13{fill:#EEEEEE;}
</style>
<g>
	<g>
		<defs>
			<rect id="SVGID_1_" width="982" height="696"/>
		</defs>
		<clipPath id="SVGID_2_">
			<use xlink:href="#SVGID_1_"  style="overflow:visible;"/>
		</clipPath>
		<rect class="st0" width="982" height="696"/>
		<g class="st1">
			<defs>
				<rect id="SVGID_3_" width="982" height="696"/>
			</defs>
			<clipPath id="SVGID_4_">
				<use xlink:href="#SVGID_3_"  style="overflow:visible;"/>
			</clipPath>
			<path class="st2" d="M982,696V0 M942.7,696V0 M923.1,696V0 M903.4,696V0 M864.2,696V0 M844.5,696V0 M824.9,696V0 M785.6,696V0
				 M766,696V0 M746.3,696V0 M707,696V0 M687.4,696V0 M667.8,696V0 M628.5,696V0 M608.8,696V0 M589.2,696V0 M549.9,696V0 M530.3,696
				V0 M510.6,696V0 M471.4,696V0 M451.7,696V0 M432.1,696V0 M392.8,696V0 M373.2,696V0 M353.5,696V0 M314.2,696V0 M294.6,696V0
				 M275,696V0 M235.7,696V0 M216,696V0 M196.4,696V0 M157.1,696V0 M137.5,696V0 M117.8,696V0 M78.6,696V0 M58.9,696V0 M39.3,696V0
				 M0,696V0 M0,14.1h982 M0,53.4h982 M0,73h982 M0,92.7h982 M0,132h982 M0,151.6h982 M0,171.2h982 M0,210.5h982 M0,230.2h982
				 M0,249.8h982 M0,289.1h982 M0,308.7h982 M0,328.4h982 M0,367.6h982 M0,387.3h982 M0,406.9h982 M0,446.2h982 M0,465.8h982
				 M0,485.5h982 M0,524.8h982 M0,544.4h982 M0,564h982 M0,603.3h982 M0,623h982 M0,642.6h982 M0,681.9h982"/>
			<path class="st3" d="M962.4,696V0 M883.8,696V0 M805.2,696V0 M726.7,696V0 M648.1,696V0 M569.6,696V0 M491,696V0 M412.4,696V0
				 M333.9,696V0 M255.3,696V0 M176.8,696V0 M98.2,696V0 M19.6,696V0 M0,33.8h982 M0,112.3h982 M0,190.9h982 M0,269.4h982 M0,348
				h982 M0,426.6h982 M0,505.1h982 M0,583.7h982 M0,662.2h982"/>
		</g>
		<g class="st1">
			<defs>
				<rect id="SVGID_5_" width="982" height="696"/>
			</defs>
			<clipPath id="SVGID_6_">
				<use xlink:href="#SVGID_5_"  style="overflow:visible;"/>
			</clipPath>
			<polygon class="st4" points="982,348 972,343 975,348 972,353 			"/>
			<line class="st5" x1="0" y1="348" x2="982" y2="348"/>
			<g class="st4">
				<text transform="matrix(1 0 0 1 8.64 365.4032)" class="st6 st7">-4.8</text>
			</g>
			<g class="st4">
				<text transform="matrix(1 0 0 1 92.2 365.4032)" class="st6 st7">-4</text>
			</g>
			<g class="st4">
				<text transform="matrix(1 0 0 1 165.76 365.4032)" class="st6 st7">-3.2</text>
			</g>
			<g class="st4">
				<text transform="matrix(1 0 0 1 244.32 365.4032)" class="st6 st7">-2.4</text>
			</g>
			<g class="st4">
				<text transform="matrix(1 0 0 1 322.88 365.4032)" class="st6 st7">-1.6</text>
			</g>
			<g class="st4">
				<text transform="matrix(1 0 0 1 401.44 365.4032)" class="st6 st7">-0.8</text>
			</g>
			<g class="st4">
				<text transform="matrix(1 0 0 1 474.0968 365.4032)" class="st6 st7">0</text>
			</g>
			<g class="st4">
				<text transform="matrix(1 0 0 1 560.56 365.4032)" class="st6 st7">0.8</text>
			</g>
			<g class="st4">
				<text transform="matrix(1 0 0 1 639.12 365.4032)" class="st6 st7">1.6</text>
			</g>
			<g class="st4">
				<text transform="matrix(1 0 0 1 717.68 365.4032)" class="st6 st7">2.4</text>
			</g>
			<g class="st4">
				<text transform="matrix(1 0 0 1 796.24 365.4032)" class="st6 st7">3.2</text>
			</g>
			<g class="st4">
				<text transform="matrix(1 0 0 1 879.8 365.4032)" class="st6 st7">4</text>
			</g>
			<g class="st4">
				<text transform="matrix(1 0 0 1 953.36 365.4032)" class="st6 st7">4.8</text>
			</g>
			<path class="st5" d="M942.7,350v-4 M923.1,350v-4 M903.4,350v-4 M864.2,350v-4 M844.5,350v-4 M824.9,350v-4 M785.6,350v-4
				 M766,350v-4 M746.3,350v-4 M707,350v-4 M687.4,350v-4 M667.8,350v-4 M628.5,350v-4 M608.8,350v-4 M589.2,350v-4 M549.9,350v-4
				 M530.3,350v-4 M510.6,350v-4 M471.4,350v-4 M451.7,350v-4 M432.1,350v-4 M392.8,350v-4 M373.2,350v-4 M353.5,350v-4 M314.2,350
				v-4 M294.6,350v-4 M275,350v-4 M235.7,350v-4 M216,350v-4 M196.4,350v-4 M157.1,350v-4 M137.5,350v-4 M117.8,350v-4 M78.6,350v-4
				 M58.9,350v-4 M39.3,350v-4"/>
			<path class="st5" d="M962.4,352v-8 M883.8,352v-8 M805.2,352v-8 M726.7,352v-8 M648.1,352v-8 M569.6,352v-8 M491,352v-8
				 M412.4,352v-8 M333.9,352v-8 M255.3,352v-8 M176.8,352v-8 M98.2,352v-8 M19.6,352v-8"/>
			<path class="st4" d="M660.2,379.7c0.1-0.1,0.3-0.1,0.4-0.1c0.1,0,0.1,0,0.2,0c0.1,0,0.1,0.1,0.2,0.1l0.3,0.2c0,0,0.1,0,0.1,0
				c0,0,0.1,0,0.1,0c0.1,0,0.3,0,0.3-0.1c0.1-0.1,0.3-0.3,0.6-0.8c0.2-0.3,0.7-1,1.5-2.1c0,0-0.1-0.4-0.2-0.9s-0.3-1.1-0.4-1.5
				c-0.1-0.4-0.2-0.7-0.3-0.8c-0.1-0.1-0.3-0.2-0.5-0.2c-0.1,0-0.2,0-0.5,0.1c-0.2,0-0.3,0.1-0.5,0.1l-0.1-0.3l1-0.3
				c0.3-0.1,0.5-0.2,0.7-0.2c0.2-0.1,0.4-0.1,0.5-0.1c0.2,0,0.4,0.1,0.6,0.2c0.2,0.2,0.3,0.7,0.5,1.4l0.2,1c0.5-0.8,0.9-1.4,1.2-1.7
				c0.3-0.3,0.5-0.5,0.7-0.7c0.2-0.1,0.5-0.2,0.7-0.2c0.2,0,0.4,0,0.5,0.1c0.2,0.1,0.3,0.3,0.3,0.6c0,0.2-0.1,0.4-0.2,0.5
				c-0.1,0.1-0.3,0.2-0.4,0.2c-0.1,0-0.1,0-0.2,0c-0.1,0-0.1,0-0.2-0.1l-0.2-0.1c-0.1,0-0.1-0.1-0.2-0.1c-0.1,0-0.1,0-0.1,0
				c-0.3,0-0.6,0.3-1.1,1c-0.5,0.7-0.7,1.1-0.7,1.2c0,0.1,0.1,0.4,0.2,0.9c0.1,0.5,0.2,1,0.4,1.5c0.1,0.5,0.2,0.9,0.3,1.1
				c0.1,0.3,0.3,0.5,0.5,0.5c0.2,0,0.3-0.1,0.5-0.3c0.2-0.2,0.4-0.5,0.7-0.9l0.2,0.1c-0.3,0.5-0.5,0.8-0.8,1.2
				c-0.5,0.6-1,0.9-1.5,0.9c-0.3,0-0.5-0.1-0.7-0.4c-0.1-0.2-0.2-0.4-0.3-0.8l-0.5-2.2l-1.8,2.4c-0.4,0.4-0.6,0.7-0.8,0.8
				c-0.2,0.1-0.4,0.2-0.7,0.2c-0.4,0-0.6-0.1-0.8-0.4c-0.1-0.1-0.1-0.3-0.1-0.4C659.9,380,660,379.8,660.2,379.7z"/>
		</g>
		<g class="st1">
			<defs>
				<rect id="SVGID_7_" width="982" height="696"/>
			</defs>
			<clipPath id="SVGID_8_">
				<use xlink:href="#SVGID_7_"  style="overflow:visible;"/>
			</clipPath>
			<polygon class="st8" points="491,0 486,10 491,7 496,10 			"/>
			<line class="st9" x1="491" y1="696" x2="491" y2="0"/>
			<g class="st8">
				<text transform="matrix(1 0 0 1 467.0968 668.3529)" class="st6 st7">-3.2</text>
			</g>
			<g class="st8">
				<text transform="matrix(1 0 0 1 467.0968 589.7929)" class="st6 st7">-2.4</text>
			</g>
			<g class="st8">
				<text transform="matrix(1 0 0 1 467.0968 511.2329)" class="st6 st7">-1.6</text>
			</g>
			<g class="st8">
				<text transform="matrix(1 0 0 1 467.0968 432.6729)" class="st6 st7">-0.8</text>
			</g>
			<g class="st8">
				<text transform="matrix(1 0 0 1 469.0968 275.5529)" class="st6 st7">0.8</text>
			</g>
			<g class="st8">
				<text transform="matrix(1 0 0 1 469.0968 196.9929)" class="st6 st7">1.6</text>
			</g>
			<g class="st8">
				<text transform="matrix(1 0 0 1 469.0968 118.4329)" class="st6 st7">2.4</text>
			</g>
			<g class="st8">
				<text transform="matrix(1 0 0 1 469.0968 39.8729)" class="st6 st7">3.2</text>
			</g>
			<path class="st9" d="M489,14.1h4 M489,53.4h4 M489,73h4 M489,92.7h4 M489,132h4 M489,151.6h4 M489,171.2h4 M489,210.5h4
				 M489,230.2h4 M489,249.8h4 M489,289.1h4 M489,308.7h4 M489,328.4h4 M489,367.6h4 M489,387.3h4 M489,406.9h4 M489,446.2h4
				 M489,465.8h4 M489,485.5h4 M489,524.8h4 M489,544.4h4 M489,564h4 M489,603.3h4 M489,623h4 M489,642.6h4 M489,681.9h4"/>
			<path class="st9" d="M487,33.8h8 M487,112.3h8 M487,190.9h8 M487,269.4h8 M487,348h8 M487,426.6h8 M487,505.1h8 M487,583.7h8
				 M487,662.2h8"/>
			<path class="st8" d="M453.2,199.4c0.1-0.1,0.3-0.2,0.5-0.2c0.1,0,0.3,0,0.4,0.1c0.1,0.1,0.2,0.1,0.4,0.2l0.1,0.1
				c0,0,0.1,0.1,0.1,0.1c0,0,0.1,0,0.1,0c0.3,0,0.7-0.4,1.4-1.1c0.6-0.8,1-1.3,1-1.7c0-0.3-0.1-1-0.3-1.9c-0.2-1-0.4-1.8-0.6-2.6
				c-0.3-1.1-0.5-1.8-0.8-2.1c-0.2-0.4-0.6-0.6-1.1-0.6c0,0-0.1,0-0.2,0c-0.1,0-0.2,0-0.4,0v-0.3l2.4-0.5l0.2,0c0.1,0,0.4,0.6,0.8,2
				c0.4,1.2,0.6,2.1,0.7,2.6l0.4,2.1c0.6-1,1.1-1.8,1.4-2.4c0.6-1.1,0.8-1.8,0.8-2.3c0-0.1,0-0.2-0.1-0.3c0-0.1-0.1-0.2-0.2-0.3
				l-0.1-0.1c-0.1,0-0.2-0.1-0.3-0.3c-0.1-0.1-0.2-0.3-0.2-0.5c0-0.2,0.1-0.3,0.2-0.5c0.1-0.1,0.3-0.2,0.5-0.2
				c0.3,0,0.5,0.1,0.7,0.3c0.2,0.2,0.3,0.5,0.3,0.9c0,0.6-0.3,1.6-1,3c-0.5,1.1-1.1,2.1-1.8,3.1c-0.8,1.2-1.5,2.2-2.1,2.9
				c-0.9,1.1-1.7,1.6-2.3,1.6c-0.2,0-0.5-0.1-0.6-0.2c-0.2-0.1-0.3-0.3-0.3-0.6C453,199.7,453.1,199.6,453.2,199.4z"/>
		</g>
		<g class="st1">
			<defs>
				<rect id="SVGID_9_" width="982" height="696"/>
			</defs>
			<clipPath id="SVGID_10_">
				<use xlink:href="#SVGID_9_"  style="overflow:visible;"/>
			</clipPath>
			<rect x="-0.5" y="-0.5" class="st10" width="983" height="697"/>
		</g>
		<g class="st1">
			<defs>
				<rect id="SVGID_11_" width="982" height="696"/>
			</defs>
			<clipPath id="SVGID_12_">
				<use xlink:href="#SVGID_11_"  style="overflow:visible;"/>
			</clipPath>
			<polygon class="st11" points="-6.9,674.1 -4.5,679.2 -4.1,676.3 -1.4,675.2 			"/>
			<line class="st12" x1="11" y1="688" x2="-4.1" y2="676.3"/>
			<polygon class="st11" points="35.4,675.3 37.7,680.4 38.1,677.5 40.9,676.5 			"/>
			<line class="st12" x1="51" y1="688" x2="38.1" y2="677.5"/>
			<polygon class="st11" points="77.7,676.5 79.9,681.6 80.4,678.8 83.1,677.8 			"/>
			<line class="st12" x1="91" y1="688" x2="80.4" y2="678.8"/>
			<polygon class="st11" points="120,677.6 121.9,682.9 122.6,680 125.4,679.2 			"/>
			<line class="st12" x1="131" y1="688" x2="122.6" y2="680"/>
			<polygon class="st11" points="162.3,678.8 163.9,684.1 164.7,681.3 167.6,680.7 			"/>
			<line class="st12" x1="171" y1="688" x2="164.7" y2="681.3"/>
			<polygon class="st11" points="204.6,679.9 205.8,685.4 206.8,682.7 209.7,682.3 			"/>
			<line class="st12" x1="211" y1="688" x2="206.8" y2="682.7"/>
			<polygon class="st11" points="247,681.1 247.3,686.7 248.7,684.1 251.6,684.1 			"/>
			<line class="st12" x1="251" y1="688" x2="248.7" y2="684.1"/>
			<polygon class="st11" points="289.3,682.2 288.3,687.7 290.3,685.6 293.1,686.3 			"/>
			<line class="st12" x1="291" y1="688" x2="290.3" y2="685.6"/>
			<polygon class="st11" points="331.6,683.4 328.7,687.7 331.2,686.6 333.3,688.3 			"/>
			<line class="st12" x1="331" y1="688" x2="331.2" y2="686.6"/>
			<polygon class="st11" points="373.9,684.5 369.3,686.6 371.9,687 372.7,689.4 			"/>
			<line class="st12" x1="371" y1="688" x2="371.9" y2="687"/>
			<polygon class="st11" points="416.2,685.7 410.6,685.4 413,687.1 412.6,690 			"/>
			<line class="st12" x1="411" y1="688" x2="413" y2="687.1"/>
			<polygon class="st11" points="458.5,686.8 453.2,685.1 455,687.4 453.9,690.1 			"/>
			<line class="st12" x1="451" y1="688" x2="455" y2="687.4"/>
			<polygon class="st11" points="500.8,688 495.8,685.5 497.3,688 495.8,690.5 			"/>
			<line class="st12" x1="491" y1="688" x2="497.3" y2="688"/>
			<polygon class="st11" points="543.1,689.2 538.4,686.2 539.6,688.8 537.9,691.2 			"/>
			<line class="st12" x1="531" y1="688" x2="539.6" y2="688.8"/>
			<polygon class="st11" points="585.4,690.3 580.9,687.1 582,689.8 580.1,692 			"/>
			<line class="st12" x1="571" y1="688" x2="582" y2="689.8"/>
			<polygon class="st11" points="627.7,691.5 623.4,688 624.3,690.8 622.3,692.9 			"/>
			<line class="st12" x1="611" y1="688" x2="624.3" y2="690.8"/>
			<polygon class="st11" points="670.1,692.6 665.8,689 666.6,691.8 664.6,693.9 			"/>
			<line class="st12" x1="651" y1="688" x2="666.6" y2="691.8"/>
			<polygon class="st11" points="712.4,693.8 708.2,690.1 709,692.9 706.9,694.9 			"/>
			<line class="st12" x1="691" y1="688" x2="709" y2="692.9"/>
			<polygon class="st11" points="754.7,694.9 750.6,691.1 751.3,693.9 749.2,695.9 			"/>
			<line class="st12" x1="731" y1="688" x2="751.3" y2="693.9"/>
			<polygon class="st11" points="797,696.1 792.9,692.2 793.6,695 791.5,697 			"/>
			<line class="st12" x1="771" y1="688" x2="793.6" y2="695"/>
			<polygon class="st11" points="839.3,697.2 835.3,693.3 836,696.2 833.8,698.1 			"/>
			<line class="st12" x1="811" y1="688" x2="836" y2="696.2"/>
			<polygon class="st11" points="881.6,698.4 877.7,694.4 878.3,697.3 876.1,699.2 			"/>
			<line class="st12" x1="851" y1="688" x2="878.3" y2="697.3"/>
			<polygon class="st11" points="923.9,699.5 920,695.5 920.6,698.4 918.4,700.2 			"/>
			<line class="st12" x1="891" y1="688" x2="920.6" y2="698.4"/>
			<polygon class="st11" points="966.2,700.7 962.4,696.7 962.9,699.5 960.7,701.4 			"/>
			<line class="st12" x1="931" y1="688" x2="962.9" y2="699.5"/>
			<polygon class="st11" points="1008.5,701.9 1004.7,697.8 1005.2,700.6 1003,702.5 			"/>
			<line class="st12" x1="971" y1="688" x2="1005.2" y2="700.6"/>
			<polygon class="st11" points="-8.1,634.1 -5.5,639.1 -5.2,636.2 -2.5,635.1 			"/>
			<line class="st12" x1="11" y1="648" x2="-5.2" y2="636.2"/>
			<polygon class="st11" points="34.3,635.3 36.7,640.3 37,637.4 39.8,636.3 			"/>
			<line class="st12" x1="51" y1="648" x2="37" y2="637.4"/>
			<polygon class="st11" points="76.6,636.5 78.9,641.5 79.3,638.6 82,637.6 			"/>
			<line class="st12" x1="91" y1="648" x2="79.3" y2="638.6"/>
			<polygon class="st11" points="118.9,637.6 121,642.8 121.5,639.9 124.3,639 			"/>
			<line class="st12" x1="131" y1="648" x2="121.5" y2="639.9"/>
			<polygon class="st11" points="161.2,638.8 163.1,644 163.7,641.2 166.5,640.4 			"/>
			<line class="st12" x1="171" y1="648" x2="163.7" y2="641.2"/>
			<polygon class="st11" points="203.5,639.9 205.1,645.3 205.9,642.5 208.7,641.9 			"/>
			<line class="st12" x1="211" y1="648" x2="205.9" y2="642.5"/>
			<polygon class="st11" points="245.8,641.1 246.8,646.6 247.9,643.9 250.8,643.6 			"/>
			<line class="st12" x1="251" y1="648" x2="247.9" y2="643.9"/>
			<polygon class="st11" points="288.1,642.2 288.1,647.8 289.7,645.4 292.6,645.6 			"/>
			<line class="st12" x1="291" y1="648" x2="289.7" y2="645.4"/>
			<polygon class="st11" points="330.4,643.4 328.7,648.3 330.8,646.6 333.3,647.7 			"/>
			<line class="st12" x1="331" y1="648" x2="330.8" y2="646.6"/>
			<polygon class="st11" points="372.7,644.5 369.3,647.1 371.5,647 372.7,648.9 			"/>
			<line class="st12" x1="371" y1="648" x2="371.5" y2="647"/>
			<polygon class="st11" points="415,645.7 409.8,646 412.2,647.3 412.2,650 			"/>
			<line class="st12" x1="411" y1="648" x2="412.2" y2="647.3"/>
			<polygon class="st11" points="457.4,646.8 452,645.3 453.9,647.5 452.9,650.2 			"/>
			<line class="st12" x1="451" y1="648" x2="453.9" y2="647.5"/>
			<polygon class="st11" points="499.7,648 494.7,645.5 496.2,648 494.7,650.5 			"/>
			<line class="st12" x1="491" y1="648" x2="496.2" y2="648"/>
			<polygon class="st11" points="542,649.2 537.3,646.1 538.5,648.8 536.7,651.1 			"/>
			<line class="st12" x1="531" y1="648" x2="538.5" y2="648.8"/>
			<polygon class="st11" points="584.3,650.3 579.8,647 580.8,649.7 578.9,651.9 			"/>
			<line class="st12" x1="571" y1="648" x2="580.8" y2="649.7"/>
			<polygon class="st11" points="626.6,651.5 622.2,647.9 623.2,650.7 621.2,652.8 			"/>
			<line class="st12" x1="611" y1="648" x2="623.2" y2="650.7"/>
			<polygon class="st11" points="668.9,652.6 664.7,648.9 665.5,651.7 663.4,653.8 			"/>
			<line class="st12" x1="651" y1="648" x2="665.5" y2="651.7"/>
			<polygon class="st11" points="711.2,653.8 707.1,650 707.8,652.8 705.7,654.8 			"/>
			<line class="st12" x1="691" y1="648" x2="707.8" y2="652.8"/>
			<polygon class="st11" points="753.5,654.9 749.5,651.1 750.2,653.9 748,655.8 			"/>
			<line class="st12" x1="731" y1="648" x2="750.2" y2="653.9"/>
			<polygon class="st11" points="795.8,656.1 791.8,652.2 792.5,655 790.3,656.9 			"/>
			<line class="st12" x1="771" y1="648" x2="792.5" y2="655"/>
			<polygon class="st11" points="838.1,657.2 834.2,653.3 834.8,656.1 832.6,658 			"/>
			<line class="st12" x1="811" y1="648" x2="834.8" y2="656.1"/>
			<polygon class="st11" points="880.4,658.4 876.6,654.4 877.1,657.2 874.9,659.1 			"/>
			<line class="st12" x1="851" y1="648" x2="877.1" y2="657.2"/>
			<polygon class="st11" points="922.8,659.5 918.9,655.5 919.5,658.3 917.2,660.2 			"/>
			<line class="st12" x1="891" y1="648" x2="919.5" y2="658.3"/>
			<polygon class="st11" points="965.1,660.7 961.2,656.6 961.8,659.5 959.5,661.3 			"/>
			<line class="st12" x1="931" y1="648" x2="961.8" y2="659.5"/>
			<polygon class="st11" points="1007.4,661.9 1003.6,657.7 1004.1,660.6 1001.8,662.4 			"/>
			<line class="st12" x1="971" y1="648" x2="1004.1" y2="660.6"/>
			<polygon class="st11" points="-9.2,594.1 -6.5,599 -6.3,596.1 -3.7,594.9 			"/>
			<line class="st12" x1="11" y1="608" x2="-6.3" y2="596.1"/>
			<polygon class="st11" points="33.1,595.3 35.7,600.2 36,597.3 38.6,596.2 			"/>
			<line class="st12" x1="51" y1="608" x2="36" y2="597.3"/>
			<polygon class="st11" points="75.4,596.5 77.9,601.4 78.2,598.5 80.9,597.4 			"/>
			<line class="st12" x1="91" y1="608" x2="78.2" y2="598.5"/>
			<polygon class="st11" points="117.7,597.6 120.1,602.7 120.5,599.8 123.2,598.7 			"/>
			<line class="st12" x1="131" y1="608" x2="120.5" y2="599.8"/>
			<polygon class="st11" points="160,598.8 162.2,603.9 162.7,601 165.5,600.1 			"/>
			<line class="st12" x1="171" y1="608" x2="162.7" y2="601"/>
			<polygon class="st11" points="202.3,599.9 204.3,605.2 204.9,602.3 207.7,601.5 			"/>
			<line class="st12" x1="211" y1="608" x2="204.9" y2="602.3"/>
			<polygon class="st11" points="244.6,601.1 246.2,606.4 247,603.7 249.9,603.1 			"/>
			<line class="st12" x1="251" y1="608" x2="247" y2="603.7"/>
			<polygon class="st11" points="287,602.2 287.8,607.8 289,605.1 291.9,604.9 			"/>
			<line class="st12" x1="291" y1="608" x2="289" y2="605.1"/>
			<polygon class="st11" points="329.3,603.4 328.7,608.9 330.5,606.6 333.3,607.1 			"/>
			<line class="st12" x1="331" y1="608" x2="330.5" y2="606.6"/>
			<polygon class="st11" points="371.6,604.5 369.3,607.7 371.2,607 372.7,608.3 			"/>
			<line class="st12" x1="371" y1="608" x2="371.2" y2="607"/>
			<polygon class="st11" points="413.9,605.7 409.8,606.6 411.9,607.3 412.2,609.4 			"/>
			<line class="st12" x1="411" y1="608" x2="411.9" y2="607.3"/>
			<polygon class="st11" points="456.2,606.8 450.8,605.5 452.8,607.6 451.9,610.4 			"/>
			<line class="st12" x1="451" y1="608" x2="452.8" y2="607.6"/>
			<polygon class="st11" points="498.5,608 493.5,605.5 495,608 493.5,610.5 			"/>
			<line class="st12" x1="491" y1="608" x2="495" y2="608"/>
			<polygon class="st11" points="540.8,609.2 536.1,606.1 537.3,608.7 535.6,611.1 			"/>
			<line class="st12" x1="531" y1="608" x2="537.3" y2="608.7"/>
			<polygon class="st11" points="583.1,610.3 578.7,606.9 579.7,609.7 577.7,611.8 			"/>
			<line class="st12" x1="571" y1="608" x2="579.7" y2="609.7"/>
			<polygon class="st11" points="625.4,611.5 621.2,607.9 622,610.6 620,612.7 			"/>
			<line class="st12" x1="611" y1="608" x2="622" y2="610.6"/>
			<polygon class="st11" points="667.7,612.6 663.6,608.9 664.4,611.7 662.3,613.7 			"/>
			<line class="st12" x1="651" y1="608" x2="664.4" y2="611.7"/>
			<polygon class="st11" points="710.1,613.8 706,609.9 706.7,612.8 704.5,614.7 			"/>
			<line class="st12" x1="691" y1="608" x2="706.7" y2="612.8"/>
			<polygon class="st11" points="752.4,614.9 748.4,611 749,613.8 746.8,615.8 			"/>
			<line class="st12" x1="731" y1="608" x2="749" y2="613.8"/>
			<polygon class="st11" points="794.7,616.1 790.7,612.1 791.4,615 789.1,616.8 			"/>
			<line class="st12" x1="771" y1="608" x2="791.4" y2="615"/>
			<polygon class="st11" points="837,617.2 833.1,613.2 833.7,616.1 831.4,617.9 			"/>
			<line class="st12" x1="811" y1="608" x2="833.7" y2="616.1"/>
			<polygon class="st11" points="879.3,618.4 875.5,614.3 876,617.2 873.7,619 			"/>
			<line class="st12" x1="851" y1="608" x2="876" y2="617.2"/>
			<polygon class="st11" points="921.6,619.5 917.8,615.4 918.3,618.3 916,620.1 			"/>
			<line class="st12" x1="891" y1="608" x2="918.3" y2="618.3"/>
			<polygon class="st11" points="963.9,620.7 960.1,616.6 960.6,619.4 958.3,621.2 			"/>
			<line class="st12" x1="931" y1="608" x2="960.6" y2="619.4"/>
			<polygon class="st11" points="1006.2,621.9 1002.5,617.7 1003,620.6 1000.6,622.4 			"/>
			<line class="st12" x1="971" y1="608" x2="1003" y2="620.6"/>
			<polygon class="st11" points="-10.4,554.1 -7.5,559 -7.4,556 -4.8,554.8 			"/>
			<line class="st12" x1="11" y1="568" x2="-7.4" y2="556"/>
			<polygon class="st11" points="31.9,555.3 34.7,560.2 34.9,557.2 37.5,556 			"/>
			<line class="st12" x1="51" y1="568" x2="34.9" y2="557.2"/>
			<polygon class="st11" points="74.3,556.5 77,561.4 77.1,558.4 79.8,557.2 			"/>
			<line class="st12" x1="91" y1="568" x2="77.1" y2="558.4"/>
			<polygon class="st11" points="116.6,557.6 119.2,562.6 119.4,559.7 122.1,558.5 			"/>
			<line class="st12" x1="131" y1="568" x2="119.4" y2="559.7"/>
			<polygon class="st11" points="158.9,558.8 161.3,563.8 161.7,560.9 164.4,559.8 			"/>
			<line class="st12" x1="171" y1="568" x2="161.7" y2="560.9"/>
			<polygon class="st11" points="201.2,559.9 203.5,565 203.9,562.1 206.6,561.2 			"/>
			<line class="st12" x1="211" y1="568" x2="203.9" y2="562.1"/>
			<polygon class="st11" points="243.5,561.1 245.5,566.3 246.1,563.4 248.9,562.6 			"/>
			<line class="st12" x1="251" y1="568" x2="246.1" y2="563.4"/>
			<polygon class="st11" points="285.8,562.2 287.3,567.6 288.1,564.8 291,564.3 			"/>
			<line class="st12" x1="291" y1="568" x2="288.1" y2="564.8"/>
			<polygon class="st11" points="328.1,563.4 328.6,568.9 330,566.3 332.9,566.3 			"/>
			<line class="st12" x1="331" y1="568" x2="330" y2="566.3"/>
			<polygon class="st11" points="370.4,564.5 369.3,568.3 370.8,567 372.7,567.7 			"/>
			<line class="st12" x1="371" y1="568" x2="370.8" y2="567"/>
			<polygon class="st11" points="412.7,565.7 409.8,567.1 411.5,567.3 412.2,568.9 			"/>
			<line class="st12" x1="411" y1="568" x2="411.5" y2="567.3"/>
			<polygon class="st11" points="455,566.8 450.4,566 452.2,567.7 451.6,570 			"/>
			<line class="st12" x1="451" y1="568" x2="452.2" y2="567.7"/>
			<polygon class="st11" points="497.4,568 492.4,565.5 493.9,568 492.4,570.5 			"/>
			<line class="st12" x1="491" y1="568" x2="493.9" y2="568"/>
			<polygon class="st11" points="539.7,569.2 535,566 536.2,568.7 534.4,571 			"/>
			<line class="st12" x1="531" y1="568" x2="536.2" y2="568.7"/>
			<polygon class="st11" points="582,570.3 577.6,566.8 578.5,569.6 576.6,571.7 			"/>
			<line class="st12" x1="571" y1="568" x2="578.5" y2="569.6"/>
			<polygon class="st11" points="624.3,571.5 620.1,567.8 620.9,570.6 618.8,572.6 			"/>
			<line class="st12" x1="611" y1="568" x2="620.9" y2="570.6"/>
			<polygon class="st11" points="666.6,572.6 662.5,568.8 663.2,571.6 661.1,573.6 			"/>
			<line class="st12" x1="651" y1="568" x2="663.2" y2="571.6"/>
			<polygon class="st11" points="708.9,573.8 704.9,569.9 705.6,572.7 703.4,574.6 			"/>
			<line class="st12" x1="691" y1="568" x2="705.6" y2="572.7"/>
			<polygon class="st11" points="751.2,574.9 747.3,570.9 747.9,573.8 745.7,575.7 			"/>
			<line class="st12" x1="731" y1="568" x2="747.9" y2="573.8"/>
			<polygon class="st11" points="793.5,576.1 789.7,572 790.2,574.9 788,576.7 			"/>
			<line class="st12" x1="771" y1="568" x2="790.2" y2="574.9"/>
			<polygon class="st11" points="835.8,577.2 832,573.1 832.5,576 830.3,577.8 			"/>
			<line class="st12" x1="811" y1="568" x2="832.5" y2="576"/>
			<polygon class="st11" points="878.1,578.4 874.4,574.3 874.9,577.1 872.6,578.9 			"/>
			<line class="st12" x1="851" y1="568" x2="874.9" y2="577.1"/>
			<polygon class="st11" points="920.4,579.5 916.7,575.4 917.2,578.3 914.9,580 			"/>
			<line class="st12" x1="891" y1="568" x2="917.2" y2="578.3"/>
			<polygon class="st11" points="962.8,580.7 959,576.5 959.5,579.4 957.2,581.2 			"/>
			<line class="st12" x1="931" y1="568" x2="959.5" y2="579.4"/>
			<polygon class="st11" points="1005.1,581.9 1001.4,577.7 1001.8,580.5 999.5,582.3 			"/>
			<line class="st12" x1="971" y1="568" x2="1001.8" y2="580.5"/>
			<polygon class="st11" points="-11.5,514.1 -8.6,518.9 -8.5,516 -5.9,514.6 			"/>
			<line class="st12" x1="11" y1="528" x2="-8.5" y2="516"/>
			<polygon class="st11" points="30.8,515.3 33.7,520.1 33.8,517.2 36.4,515.8 			"/>
			<line class="st12" x1="51" y1="528" x2="33.8" y2="517.2"/>
			<polygon class="st11" points="73.1,516.5 76,521.3 76,518.4 78.7,517.1 			"/>
			<line class="st12" x1="91" y1="528" x2="76" y2="518.4"/>
			<polygon class="st11" points="115.4,517.6 118.2,522.5 118.3,519.6 121,518.3 			"/>
			<line class="st12" x1="131" y1="528" x2="118.3" y2="519.6"/>
			<polygon class="st11" points="157.7,518.8 160.4,523.7 160.6,520.8 163.3,519.6 			"/>
			<line class="st12" x1="171" y1="528" x2="160.6" y2="520.8"/>
			<polygon class="st11" points="200,519.9 202.6,524.9 202.8,522 205.5,520.9 			"/>
			<line class="st12" x1="211" y1="528" x2="202.8" y2="522"/>
			<polygon class="st11" points="242.3,521.1 244.7,526.1 245.1,523.3 247.8,522.2 			"/>
			<line class="st12" x1="251" y1="528" x2="245.1" y2="523.3"/>
			<polygon class="st11" points="284.6,522.2 286.7,527.4 287.2,524.6 290,523.7 			"/>
			<line class="st12" x1="291" y1="528" x2="287.2" y2="524.6"/>
			<polygon class="st11" points="327,523.4 328.4,528.8 329.3,526 332.1,525.5 			"/>
			<line class="st12" x1="331" y1="528" x2="329.3" y2="526"/>
			<polygon class="st11" points="369.3,524.5 369.3,528.9 370.5,527 372.7,527.1 			"/>
			<line class="st12" x1="371" y1="528" x2="370.5" y2="527"/>
			<polygon class="st11" points="411.6,525.7 409.8,527.7 411.2,527.3 412.2,528.3 			"/>
			<line class="st12" x1="411" y1="528" x2="411.2" y2="527.3"/>
			<polygon class="st11" points="453.9,526.8 450.4,526.6 451.9,527.7 451.6,529.4 			"/>
			<line class="st12" x1="451" y1="528" x2="451.9" y2="527.7"/>
			<polygon class="st11" points="496.2,528 491.2,525.5 492.7,528 491.2,530.5 			"/>
			<line class="st12" x1="491" y1="528" x2="492.7" y2="528"/>
			<polygon class="st11" points="538.5,529.2 533.9,525.9 535,528.6 533.2,530.9 			"/>
			<line class="st12" x1="531" y1="528" x2="535" y2="528.6"/>
			<polygon class="st11" points="580.8,530.3 576.5,526.7 577.4,529.5 575.4,531.6 			"/>
			<line class="st12" x1="571" y1="528" x2="577.4" y2="529.5"/>
			<polygon class="st11" points="623.1,531.5 619,527.7 619.8,530.5 617.6,532.5 			"/>
			<line class="st12" x1="611" y1="528" x2="619.8" y2="530.5"/>
			<polygon class="st11" points="665.4,532.6 661.4,528.7 662.1,531.6 659.9,533.5 			"/>
			<line class="st12" x1="651" y1="528" x2="662.1" y2="531.6"/>
			<polygon class="st11" points="707.7,533.8 703.8,529.8 704.4,532.6 702.2,534.5 			"/>
			<line class="st12" x1="691" y1="528" x2="704.4" y2="532.6"/>
			<polygon class="st11" points="750.1,534.9 746.2,530.9 746.8,533.7 744.5,535.6 			"/>
			<line class="st12" x1="731" y1="528" x2="746.8" y2="533.7"/>
			<polygon class="st11" points="792.4,536.1 788.6,532 789.1,534.8 786.8,536.7 			"/>
			<line class="st12" x1="771" y1="528" x2="789.1" y2="534.8"/>
			<polygon class="st11" points="834.7,537.2 830.9,533.1 831.4,536 829.1,537.7 			"/>
			<line class="st12" x1="811" y1="528" x2="831.4" y2="536"/>
			<polygon class="st11" points="877,538.4 873.3,534.2 873.7,537.1 871.4,538.9 			"/>
			<line class="st12" x1="851" y1="528" x2="873.7" y2="537.1"/>
			<polygon class="st11" points="919.3,539.5 915.6,535.3 916,538.2 913.7,540 			"/>
			<line class="st12" x1="891" y1="528" x2="916" y2="538.2"/>
			<polygon class="st11" points="961.6,540.7 957.9,536.5 958.4,539.4 956,541.1 			"/>
			<line class="st12" x1="931" y1="528" x2="958.4" y2="539.4"/>
			<polygon class="st11" points="1003.9,541.9 1000.3,537.6 1000.7,540.5 998.3,542.2 			"/>
			<line class="st12" x1="971" y1="528" x2="1000.7" y2="540.5"/>
			<polygon class="st11" points="-12.7,474.1 -9.6,478.8 -9.6,475.9 -7.1,474.5 			"/>
			<line class="st12" x1="11" y1="488" x2="-9.6" y2="475.9"/>
			<polygon class="st11" points="29.6,475.3 32.7,480 32.6,477.1 35.2,475.7 			"/>
			<line class="st12" x1="51" y1="488" x2="32.6" y2="477.1"/>
			<polygon class="st11" points="71.9,476.5 74.9,481.2 74.9,478.3 77.5,476.9 			"/>
			<line class="st12" x1="91" y1="488" x2="74.9" y2="478.3"/>
			<polygon class="st11" points="114.3,477.6 117.2,482.4 117.2,479.5 119.8,478.1 			"/>
			<line class="st12" x1="131" y1="488" x2="117.2" y2="479.5"/>
			<polygon class="st11" points="156.6,478.8 159.4,483.6 159.5,480.6 162.1,479.4 			"/>
			<line class="st12" x1="171" y1="488" x2="159.5" y2="480.6"/>
			<polygon class="st11" points="198.9,479.9 201.7,484.8 201.8,481.9 204.4,480.6 			"/>
			<line class="st12" x1="211" y1="488" x2="201.8" y2="481.9"/>
			<polygon class="st11" points="241.2,481.1 243.8,486 244,483.1 246.7,481.9 			"/>
			<line class="st12" x1="251" y1="488" x2="244" y2="483.1"/>
			<polygon class="st11" points="283.5,482.2 285.9,487.3 286.3,484.4 289,483.3 			"/>
			<line class="st12" x1="291" y1="488" x2="286.3" y2="484.4"/>
			<polygon class="st11" points="325.8,483.4 327.9,488.6 328.4,485.7 331.2,484.8 			"/>
			<line class="st12" x1="331" y1="488" x2="328.4" y2="485.7"/>
			<polygon class="st11" points="368.1,484.5 369.3,489.4 370.1,487 372.7,486.6 			"/>
			<line class="st12" x1="371" y1="488" x2="370.1" y2="487"/>
			<polygon class="st11" points="410.4,485.7 409.8,488.3 410.8,487.3 412.2,487.7 			"/>
			<line class="st12" x1="411" y1="488" x2="410.8" y2="487.3"/>
			<polygon class="st11" points="452.7,486.8 450.4,487.1 451.5,487.7 451.6,488.9 			"/>
			<line class="st12" x1="451" y1="488" x2="451.5" y2="487.7"/>
			<polygon class="st11" points="495,488 491,486 492.2,488 491,490 			"/>
			<line class="st12" x1="491" y1="488" x2="492.2" y2="488"/>
			<polygon class="st11" points="537.4,489.2 532.9,485.8 533.9,488.5 532,490.7 			"/>
			<line class="st12" x1="531" y1="488" x2="533.9" y2="488.5"/>
			<polygon class="st11" points="579.7,490.3 575.5,486.6 576.3,489.4 574.2,491.4 			"/>
			<line class="st12" x1="571" y1="488" x2="576.3" y2="489.4"/>
			<polygon class="st11" points="622,491.5 618,487.6 618.6,490.4 616.4,492.3 			"/>
			<line class="st12" x1="611" y1="488" x2="618.6" y2="490.4"/>
			<polygon class="st11" points="664.3,492.6 660.4,488.6 661,491.5 658.7,493.3 			"/>
			<line class="st12" x1="651" y1="488" x2="661" y2="491.5"/>
			<polygon class="st11" points="706.6,493.8 702.8,489.7 703.3,492.6 701,494.4 			"/>
			<line class="st12" x1="691" y1="488" x2="703.3" y2="492.6"/>
			<polygon class="st11" points="748.9,494.9 745.1,490.8 745.6,493.7 743.3,495.5 			"/>
			<line class="st12" x1="731" y1="488" x2="745.6" y2="493.7"/>
			<polygon class="st11" points="791.2,496.1 787.5,491.9 788,494.8 785.6,496.5 			"/>
			<line class="st12" x1="771" y1="488" x2="788" y2="494.8"/>
			<polygon class="st11" points="833.5,497.2 829.8,493 830.3,495.9 827.9,497.7 			"/>
			<line class="st12" x1="811" y1="488" x2="830.3" y2="495.9"/>
			<polygon class="st11" points="875.8,498.4 872.2,494.2 872.6,497 870.2,498.8 			"/>
			<line class="st12" x1="851" y1="488" x2="872.6" y2="497"/>
			<polygon class="st11" points="918.1,499.5 914.5,495.3 914.9,498.2 912.6,499.9 			"/>
			<line class="st12" x1="891" y1="488" x2="914.9" y2="498.2"/>
			<polygon class="st11" points="960.4,500.7 956.8,496.4 957.2,499.3 954.9,501 			"/>
			<line class="st12" x1="931" y1="488" x2="957.2" y2="499.3"/>
			<polygon class="st11" points="1002.8,501.9 999.2,497.6 999.5,500.5 997.2,502.1 			"/>
			<line class="st12" x1="971" y1="488" x2="999.5" y2="500.5"/>
			<polygon class="st11" points="-13.8,434.1 -10.7,438.8 -10.8,435.9 -8.2,434.4 			"/>
			<line class="st12" x1="11" y1="448" x2="-10.8" y2="435.9"/>
			<polygon class="st11" points="28.5,435.3 31.6,439.9 31.5,437 34.1,435.6 			"/>
			<line class="st12" x1="51" y1="448" x2="31.5" y2="437"/>
			<polygon class="st11" points="70.8,436.5 73.9,441.1 73.8,438.2 76.4,436.8 			"/>
			<line class="st12" x1="91" y1="448" x2="73.8" y2="438.2"/>
			<polygon class="st11" points="113.1,437.6 116.2,442.3 116.1,439.4 118.7,438 			"/>
			<line class="st12" x1="131" y1="448" x2="116.1" y2="439.4"/>
			<polygon class="st11" points="155.4,438.8 158.4,443.5 158.4,440.5 161,439.2 			"/>
			<line class="st12" x1="171" y1="448" x2="158.4" y2="440.5"/>
			<polygon class="st11" points="197.7,439.9 200.7,444.7 200.7,441.7 203.3,440.4 			"/>
			<line class="st12" x1="211" y1="448" x2="200.7" y2="441.7"/>
			<polygon class="st11" points="240,441.1 242.9,445.9 243,442.9 245.6,441.6 			"/>
			<line class="st12" x1="251" y1="448" x2="243" y2="442.9"/>
			<polygon class="st11" points="282.3,442.2 285.1,447.1 285.3,444.2 287.9,442.9 			"/>
			<line class="st12" x1="291" y1="448" x2="285.3" y2="444.2"/>
			<polygon class="st11" points="324.6,443.4 327.2,448.3 327.5,445.4 330.2,444.3 			"/>
			<line class="st12" x1="331" y1="448" x2="327.5" y2="445.4"/>
			<polygon class="st11" points="367,444.5 369.1,449.7 369.6,446.8 372.4,445.9 			"/>
			<line class="st12" x1="371" y1="448" x2="369.6" y2="446.8"/>
			<polygon class="st11" points="409.3,445.7 409.8,448.9 410.5,447.3 412.2,447.1 			"/>
			<line class="st12" x1="411" y1="448" x2="410.5" y2="447.3"/>
			<polygon class="st11" points="451.6,446.8 450.4,447.7 451.2,447.7 451.6,448.3 			"/>
			<line class="st12" x1="451" y1="448" x2="451.2" y2="447.7"/>
			<polygon class="st11" points="493.9,448 491,446.6 491.9,448 491,449.4 			"/>
			<line class="st12" x1="491" y1="448" x2="491.9" y2="448"/>
			<polygon class="st11" points="536.2,449.2 531.9,445.6 532.8,448.4 530.8,450.5 			"/>
			<line class="st12" x1="531" y1="448" x2="532.8" y2="448.4"/>
			<polygon class="st11" points="578.5,450.3 574.5,446.4 575.2,449.3 573,451.2 			"/>
			<line class="st12" x1="571" y1="448" x2="575.2" y2="449.3"/>
			<polygon class="st11" points="620.8,451.5 616.9,447.4 617.5,450.3 615.3,452.2 			"/>
			<line class="st12" x1="611" y1="448" x2="617.5" y2="450.3"/>
			<polygon class="st11" points="663.1,452.6 659.3,448.5 659.9,451.4 657.6,453.2 			"/>
			<line class="st12" x1="651" y1="448" x2="659.9" y2="451.4"/>
			<polygon class="st11" points="705.4,453.8 701.7,449.6 702.2,452.5 699.9,454.2 			"/>
			<line class="st12" x1="691" y1="448" x2="702.2" y2="452.5"/>
			<polygon class="st11" points="747.7,454.9 744.1,450.7 744.5,453.6 742.2,455.3 			"/>
			<line class="st12" x1="731" y1="448" x2="744.5" y2="453.6"/>
			<polygon class="st11" points="790.1,456.1 786.4,451.8 786.8,454.7 784.5,456.4 			"/>
			<line class="st12" x1="771" y1="448" x2="786.8" y2="454.7"/>
			<polygon class="st11" points="832.4,457.2 828.8,453 829.1,455.8 826.8,457.5 			"/>
			<line class="st12" x1="811" y1="448" x2="829.1" y2="455.8"/>
			<polygon class="st11" points="874.7,458.4 871.1,454.1 871.5,457 869.1,458.7 			"/>
			<line class="st12" x1="851" y1="448" x2="871.5" y2="457"/>
			<polygon class="st11" points="917,459.5 913.4,455.2 913.8,458.1 911.4,459.8 			"/>
			<line class="st12" x1="891" y1="448" x2="913.8" y2="458.1"/>
			<polygon class="st11" points="959.3,460.7 955.7,456.4 956.1,459.3 953.7,460.9 			"/>
			<line class="st12" x1="931" y1="448" x2="956.1" y2="459.3"/>
			<polygon class="st11" points="1001.6,461.9 998.1,457.5 998.4,460.4 996,462.1 			"/>
			<line class="st12" x1="971" y1="448" x2="998.4" y2="460.4"/>
			<polygon class="st11" points="-15,394.1 -11.7,398.7 -11.9,395.8 -9.4,394.3 			"/>
			<line class="st12" x1="11" y1="408" x2="-11.9" y2="395.8"/>
			<polygon class="st11" points="27.3,395.3 30.6,399.9 30.4,397 32.9,395.5 			"/>
			<line class="st12" x1="51" y1="408" x2="30.4" y2="397"/>
			<polygon class="st11" points="69.6,396.5 72.8,401 72.7,398.1 75.2,396.6 			"/>
			<line class="st12" x1="91" y1="408" x2="72.7" y2="398.1"/>
			<polygon class="st11" points="111.9,397.6 115.1,402.2 115,399.3 117.5,397.8 			"/>
			<line class="st12" x1="131" y1="408" x2="115" y2="399.3"/>
			<polygon class="st11" points="154.3,398.8 157.4,403.4 157.3,400.5 159.8,399 			"/>
			<line class="st12" x1="171" y1="408" x2="157.3" y2="400.5"/>
			<polygon class="st11" points="196.6,399.9 199.7,404.5 199.6,401.6 202.2,400.2 			"/>
			<line class="st12" x1="211" y1="408" x2="199.6" y2="401.6"/>
			<polygon class="st11" points="238.9,401.1 242,405.7 241.9,402.8 244.5,401.4 			"/>
			<line class="st12" x1="251" y1="408" x2="241.9" y2="402.8"/>
			<polygon class="st11" points="281.2,402.2 284.2,406.9 284.2,404 286.8,402.6 			"/>
			<line class="st12" x1="291" y1="408" x2="284.2" y2="404"/>
			<polygon class="st11" points="323.5,403.4 326.4,408.1 326.5,405.2 329.1,403.9 			"/>
			<line class="st12" x1="331" y1="408" x2="326.5" y2="405.2"/>
			<polygon class="st11" points="365.8,404.5 368.6,409.4 368.7,406.5 371.4,405.2 			"/>
			<line class="st12" x1="371" y1="408" x2="368.7" y2="406.5"/>
			<polygon class="st11" points="408.1,405.7 409.8,409.4 410.1,407.3 412.2,406.6 			"/>
			<line class="st12" x1="411" y1="408" x2="410.1" y2="407.3"/>
			<polygon class="st11" points="450.4,406.8 450.4,408.3 450.8,407.7 451.6,407.7 			"/>
			<line class="st12" x1="451" y1="408" x2="450.8" y2="407.7"/>
			<polygon class="st11" points="492.7,408 491,407.1 491.5,408 491,408.9 			"/>
			<line class="st12" x1="491" y1="408" x2="491.5" y2="408"/>
			<polygon class="st11" points="535,409.2 531.6,406 532.2,408.3 530.4,410 			"/>
			<line class="st12" x1="531" y1="408" x2="532.2" y2="408.3"/>
			<polygon class="st11" points="577.4,410.3 573.5,406.3 574.1,409.1 571.8,410.9 			"/>
			<line class="st12" x1="571" y1="408" x2="574.1" y2="409.1"/>
			<polygon class="st11" points="619.7,411.5 615.9,407.3 616.4,410.2 614.1,411.9 			"/>
			<line class="st12" x1="611" y1="408" x2="616.4" y2="410.2"/>
			<polygon class="st11" points="662,412.6 658.3,408.4 658.7,411.3 656.4,413 			"/>
			<line class="st12" x1="651" y1="408" x2="658.7" y2="411.3"/>
			<polygon class="st11" points="704.3,413.8 700.7,409.5 701.1,412.4 698.7,414.1 			"/>
			<line class="st12" x1="691" y1="408" x2="701.1" y2="412.4"/>
			<polygon class="st11" points="746.6,414.9 743,410.6 743.4,413.5 741,415.2 			"/>
			<line class="st12" x1="731" y1="408" x2="743.4" y2="413.5"/>
			<polygon class="st11" points="788.9,416.1 785.4,411.7 785.7,414.6 783.3,416.3 			"/>
			<line class="st12" x1="771" y1="408" x2="785.7" y2="414.6"/>
			<polygon class="st11" points="831.2,417.2 827.7,412.9 828,415.8 825.6,417.4 			"/>
			<line class="st12" x1="811" y1="408" x2="828" y2="415.8"/>
			<polygon class="st11" points="873.5,418.4 870,414 870.3,416.9 867.9,418.6 			"/>
			<line class="st12" x1="851" y1="408" x2="870.3" y2="416.9"/>
			<polygon class="st11" points="915.8,419.5 912.3,415.2 912.7,418.1 910.2,419.7 			"/>
			<line class="st12" x1="891" y1="408" x2="912.7" y2="418.1"/>
			<polygon class="st11" points="958.1,420.7 954.7,416.3 955,419.2 952.5,420.8 			"/>
			<line class="st12" x1="931" y1="408" x2="955" y2="419.2"/>
			<polygon class="st11" points="1000.4,421.9 997,417.5 997.3,420.4 994.9,422 			"/>
			<line class="st12" x1="971" y1="408" x2="997.3" y2="420.4"/>
			<polygon class="st11" points="-16.1,354.1 -12.8,358.6 -13,355.7 -10.5,354.2 			"/>
			<line class="st12" x1="11" y1="368" x2="-13" y2="355.7"/>
			<polygon class="st11" points="26.2,355.3 29.5,359.8 29.3,356.9 31.8,355.4 			"/>
			<line class="st12" x1="51" y1="368" x2="29.3" y2="356.9"/>
			<polygon class="st11" points="68.5,356.5 71.8,361 71.6,358.1 74.1,356.5 			"/>
			<line class="st12" x1="91" y1="368" x2="71.6" y2="358.1"/>
			<polygon class="st11" points="110.8,357.6 114.1,362.1 113.9,359.2 116.4,357.7 			"/>
			<line class="st12" x1="131" y1="368" x2="113.9" y2="359.2"/>
			<polygon class="st11" points="153.1,358.8 156.4,363.3 156.2,360.4 158.7,358.8 			"/>
			<line class="st12" x1="171" y1="368" x2="156.2" y2="360.4"/>
			<polygon class="st11" points="195.4,359.9 198.7,364.4 198.5,361.5 201,360 			"/>
			<line class="st12" x1="211" y1="368" x2="198.5" y2="361.5"/>
			<polygon class="st11" points="237.7,361.1 241,365.6 240.8,362.7 243.3,361.2 			"/>
			<line class="st12" x1="251" y1="368" x2="240.8" y2="362.7"/>
			<polygon class="st11" points="280,362.2 283.3,366.8 283.1,363.9 285.6,362.3 			"/>
			<line class="st12" x1="291" y1="368" x2="283.1" y2="363.9"/>
			<polygon class="st11" points="322.3,363.4 325.6,367.9 325.4,365 327.9,363.5 			"/>
			<line class="st12" x1="331" y1="368" x2="325.4" y2="365"/>
			<polygon class="st11" points="364.6,364.5 367.8,369.1 367.7,366.2 370.2,364.7 			"/>
			<line class="st12" x1="371" y1="368" x2="367.7" y2="366.2"/>
			<polygon class="st11" points="407,365.7 409.8,370 409.8,367.3 412.2,366 			"/>
			<line class="st12" x1="411" y1="368" x2="409.8" y2="367.3"/>
			<polygon class="st11" points="449.3,366.8 450.4,368.9 450.5,367.7 451.6,367.1 			"/>
			<line class="st12" x1="451" y1="368" x2="450.5" y2="367.7"/>
			<polygon class="st11" points="491.6,368 491,367.7 491.2,368 491,368.3 			"/>
			<line class="st12" x1="491" y1="368" x2="491.2" y2="368"/>
			<polygon class="st11" points="533.9,369.2 531.6,366.6 531.9,368.3 530.4,369.4 			"/>
			<line class="st12" x1="531" y1="368" x2="531.9" y2="368.3"/>
			<polygon class="st11" points="576.2,370.3 572.6,366 573,368.9 570.6,370.6 			"/>
			<line class="st12" x1="571" y1="368" x2="573" y2="368.9"/>
			<polygon class="st11" points="618.5,371.5 615,367.1 615.3,370 612.9,371.6 			"/>
			<line class="st12" x1="611" y1="368" x2="615.3" y2="370"/>
			<polygon class="st11" points="660.8,372.6 657.4,368.2 657.6,371.1 655.2,372.8 			"/>
			<line class="st12" x1="651" y1="368" x2="657.6" y2="371.1"/>
			<polygon class="st11" points="703.1,373.8 699.7,369.4 700,372.3 697.5,373.9 			"/>
			<line class="st12" x1="691" y1="368" x2="700" y2="372.3"/>
			<polygon class="st11" points="745.4,374.9 742,370.5 742.3,373.4 739.8,375 			"/>
			<line class="st12" x1="731" y1="368" x2="742.3" y2="373.4"/>
			<polygon class="st11" points="787.7,376.1 784.3,371.7 784.6,374.6 782.2,376.2 			"/>
			<line class="st12" x1="771" y1="368" x2="784.6" y2="374.6"/>
			<polygon class="st11" points="830.1,377.2 826.6,372.8 826.9,375.7 824.5,377.3 			"/>
			<line class="st12" x1="811" y1="368" x2="826.9" y2="375.7"/>
			<polygon class="st11" points="872.4,378.4 869,374 869.2,376.9 866.8,378.5 			"/>
			<line class="st12" x1="851" y1="368" x2="869.2" y2="376.9"/>
			<polygon class="st11" points="914.7,379.5 911.3,375.1 911.5,378 909.1,379.6 			"/>
			<line class="st12" x1="891" y1="368" x2="911.5" y2="378"/>
			<polygon class="st11" points="957,380.7 953.6,376.3 953.8,379.2 951.4,380.8 			"/>
			<line class="st12" x1="931" y1="368" x2="953.8" y2="379.2"/>
			<polygon class="st11" points="999.3,381.9 995.9,377.4 996.1,380.3 993.7,381.9 			"/>
			<line class="st12" x1="971" y1="368" x2="996.1" y2="380.3"/>
			<polygon class="st11" points="-17.3,314.1 -13.9,318.6 -14.1,315.7 -11.7,314.1 			"/>
			<line class="st12" x1="11" y1="328" x2="-14.1" y2="315.7"/>
			<polygon class="st11" points="25,315.3 28.4,319.7 28.2,316.8 30.6,315.2 			"/>
			<line class="st12" x1="51" y1="328" x2="28.2" y2="316.8"/>
			<polygon class="st11" points="67.3,316.5 70.7,320.9 70.5,318 72.9,316.4 			"/>
			<line class="st12" x1="91" y1="328" x2="70.5" y2="318"/>
			<polygon class="st11" points="109.6,317.6 113,322 112.8,319.1 115.2,317.5 			"/>
			<line class="st12" x1="131" y1="328" x2="112.8" y2="319.1"/>
			<polygon class="st11" points="151.9,318.8 155.4,323.2 155.1,320.3 157.5,318.7 			"/>
			<line class="st12" x1="171" y1="328" x2="155.1" y2="320.3"/>
			<polygon class="st11" points="194.3,319.9 197.7,324.3 197.4,321.4 199.8,319.8 			"/>
			<line class="st12" x1="211" y1="328" x2="197.4" y2="321.4"/>
			<polygon class="st11" points="236.6,321.1 240,325.5 239.7,322.6 242.2,321 			"/>
			<line class="st12" x1="251" y1="328" x2="239.7" y2="322.6"/>
			<polygon class="st11" points="278.9,322.2 282.3,326.6 282,323.7 284.5,322.1 			"/>
			<line class="st12" x1="291" y1="328" x2="282" y2="323.7"/>
			<polygon class="st11" points="321.2,323.4 324.6,327.8 324.4,324.9 326.8,323.2 			"/>
			<line class="st12" x1="331" y1="328" x2="324.4" y2="324.9"/>
			<polygon class="st11" points="363.5,324.5 367,328.9 366.7,326 369.1,324.4 			"/>
			<line class="st12" x1="371" y1="328" x2="366.7" y2="326"/>
			<polygon class="st11" points="405.8,325.7 409.4,330 409,327.1 411.4,325.4 			"/>
			<line class="st12" x1="411" y1="328" x2="409" y2="327.1"/>
			<polygon class="st11" points="448.1,326.8 450.4,329.4 450.1,327.7 451.6,326.6 			"/>
			<line class="st12" x1="451" y1="328" x2="450.1" y2="327.7"/>
			<polygon class="st11" points="490.4,328 491,328.3 490.8,328 491,327.7 			"/>
			<line class="st12" x1="491" y1="328" x2="490.8" y2="328"/>
			<polygon class="st11" points="532.7,329.2 531.6,327.1 531.5,328.3 530.4,328.9 			"/>
			<line class="st12" x1="531" y1="328" x2="531.5" y2="328.3"/>
			<polygon class="st11" points="575,330.3 572.2,326 572.2,328.7 569.8,330 			"/>
			<line class="st12" x1="571" y1="328" x2="572.2" y2="328.7"/>
			<polygon class="st11" points="617.4,331.5 614.2,326.9 614.3,329.8 611.8,331.3 			"/>
			<line class="st12" x1="611" y1="328" x2="614.3" y2="329.8"/>
			<polygon class="st11" points="659.7,332.6 656.4,328.1 656.6,331 654.1,332.5 			"/>
			<line class="st12" x1="651" y1="328" x2="656.6" y2="331"/>
			<polygon class="st11" points="702,333.8 698.7,329.2 698.9,332.1 696.4,333.7 			"/>
			<line class="st12" x1="691" y1="328" x2="698.9" y2="332.1"/>
			<polygon class="st11" points="744.3,334.9 741,330.4 741.2,333.3 738.7,334.8 			"/>
			<line class="st12" x1="731" y1="328" x2="741.2" y2="333.3"/>
			<polygon class="st11" points="786.6,336.1 783.3,331.6 783.5,334.5 781,336 			"/>
			<line class="st12" x1="771" y1="328" x2="783.5" y2="334.5"/>
			<polygon class="st11" points="828.9,337.2 825.6,332.7 825.8,335.6 823.3,337.2 			"/>
			<line class="st12" x1="811" y1="328" x2="825.8" y2="335.6"/>
			<polygon class="st11" points="871.2,338.4 867.9,333.9 868.1,336.8 865.6,338.3 			"/>
			<line class="st12" x1="851" y1="328" x2="868.1" y2="336.8"/>
			<polygon class="st11" points="913.5,339.5 910.2,335 910.4,337.9 907.9,339.5 			"/>
			<line class="st12" x1="891" y1="328" x2="910.4" y2="337.9"/>
			<polygon class="st11" points="955.8,340.7 952.5,336.2 952.7,339.1 950.2,340.6 			"/>
			<line class="st12" x1="931" y1="328" x2="952.7" y2="339.1"/>
			<polygon class="st11" points="998.1,341.9 994.8,337.4 995,340.3 992.5,341.8 			"/>
			<line class="st12" x1="971" y1="328" x2="995" y2="340.3"/>
			<polygon class="st11" points="-18.4,274.1 -15,278.5 -15.3,275.6 -12.9,274 			"/>
			<line class="st12" x1="11" y1="288" x2="-15.3" y2="275.6"/>
			<polygon class="st11" points="23.9,275.3 27.3,279.7 27,276.8 29.5,275.2 			"/>
			<line class="st12" x1="51" y1="288" x2="27" y2="276.8"/>
			<polygon class="st11" points="66.2,276.5 69.7,280.8 69.4,277.9 71.8,276.3 			"/>
			<line class="st12" x1="91" y1="288" x2="69.4" y2="277.9"/>
			<polygon class="st11" points="108.5,277.6 112,282 111.7,279.1 114.1,277.4 			"/>
			<line class="st12" x1="131" y1="288" x2="111.7" y2="279.1"/>
			<polygon class="st11" points="150.8,278.8 154.3,283.1 154,280.2 156.4,278.6 			"/>
			<line class="st12" x1="171" y1="288" x2="154" y2="280.2"/>
			<polygon class="st11" points="193.1,279.9 196.6,284.3 196.3,281.4 198.7,279.7 			"/>
			<line class="st12" x1="211" y1="288" x2="196.3" y2="281.4"/>
			<polygon class="st11" points="235.4,281.1 239,285.4 238.6,282.5 241,280.8 			"/>
			<line class="st12" x1="251" y1="288" x2="238.6" y2="282.5"/>
			<polygon class="st11" points="277.7,282.2 281.3,286.5 280.9,283.6 283.3,281.9 			"/>
			<line class="st12" x1="291" y1="288" x2="280.9" y2="283.6"/>
			<polygon class="st11" points="320,283.4 323.7,287.6 323.3,284.7 325.6,283 			"/>
			<line class="st12" x1="331" y1="288" x2="323.3" y2="284.7"/>
			<polygon class="st11" points="362.3,284.5 366.1,288.7 365.6,285.8 367.9,284.1 			"/>
			<line class="st12" x1="371" y1="288" x2="365.6" y2="285.8"/>
			<polygon class="st11" points="404.6,285.7 408.5,289.7 407.9,286.9 410.2,285.1 			"/>
			<line class="st12" x1="411" y1="288" x2="407.9" y2="286.9"/>
			<polygon class="st11" points="447,286.8 450.4,290 449.8,287.7 451.6,286 			"/>
			<line class="st12" x1="451" y1="288" x2="449.8" y2="287.7"/>
			<polygon class="st11" points="489.3,288 491,288.9 490.5,288 491,287.1 			"/>
			<line class="st12" x1="491" y1="288" x2="490.5" y2="288"/>
			<polygon class="st11" points="531.6,289.2 531.6,287.7 531.2,288.3 530.4,288.3 			"/>
			<line class="st12" x1="531" y1="288" x2="531.2" y2="288.3"/>
			<polygon class="st11" points="573.9,290.3 572.2,286.6 571.9,288.7 569.8,289.4 			"/>
			<line class="st12" x1="571" y1="288" x2="571.9" y2="288.7"/>
			<polygon class="st11" points="616.2,291.5 613.4,286.6 613.3,289.5 610.6,290.8 			"/>
			<line class="st12" x1="611" y1="288" x2="613.3" y2="289.5"/>
			<polygon class="st11" points="658.5,292.6 655.6,287.9 655.5,290.8 652.9,292.1 			"/>
			<line class="st12" x1="651" y1="288" x2="655.5" y2="290.8"/>
			<polygon class="st11" points="700.8,293.8 697.8,289.1 697.8,292 695.2,293.4 			"/>
			<line class="st12" x1="691" y1="288" x2="697.8" y2="292"/>
			<polygon class="st11" points="743.1,294.9 740,290.3 740.1,293.2 737.5,294.6 			"/>
			<line class="st12" x1="731" y1="288" x2="740.1" y2="293.2"/>
			<polygon class="st11" points="785.4,296.1 782.3,291.5 782.4,294.4 779.8,295.8 			"/>
			<line class="st12" x1="771" y1="288" x2="782.4" y2="294.4"/>
			<polygon class="st11" points="827.7,297.2 824.6,292.6 824.7,295.5 822.2,297 			"/>
			<line class="st12" x1="811" y1="288" x2="824.7" y2="295.5"/>
			<polygon class="st11" points="870.1,298.4 866.9,293.8 867,296.7 864.5,298.2 			"/>
			<line class="st12" x1="851" y1="288" x2="867" y2="296.7"/>
			<polygon class="st11" points="912.4,299.5 909.2,295 909.3,297.9 906.8,299.4 			"/>
			<line class="st12" x1="891" y1="288" x2="909.3" y2="297.9"/>
			<polygon class="st11" points="954.7,300.7 951.4,296.1 951.6,299 949.1,300.5 			"/>
			<line class="st12" x1="931" y1="288" x2="951.6" y2="299"/>
			<polygon class="st11" points="997,301.9 993.7,297.3 993.9,300.2 991.4,301.7 			"/>
			<line class="st12" x1="971" y1="288" x2="993.9" y2="300.2"/>
			<polygon class="st11" points="-19.6,234.1 -16.1,238.5 -16.4,235.6 -14,233.9 			"/>
			<line class="st12" x1="11" y1="248" x2="-16.4" y2="235.6"/>
			<polygon class="st11" points="22.7,235.3 26.3,239.6 25.9,236.7 28.3,235.1 			"/>
			<line class="st12" x1="51" y1="248" x2="25.9" y2="236.7"/>
			<polygon class="st11" points="65,236.5 68.6,240.8 68.2,237.9 70.6,236.2 			"/>
			<line class="st12" x1="91" y1="248" x2="68.2" y2="237.9"/>
			<polygon class="st11" points="107.3,237.6 110.9,241.9 110.5,239 112.9,237.3 			"/>
			<line class="st12" x1="131" y1="248" x2="110.5" y2="239"/>
			<polygon class="st11" points="149.6,238.8 153.2,243 152.9,240.2 155.2,238.5 			"/>
			<line class="st12" x1="171" y1="248" x2="152.9" y2="240.2"/>
			<polygon class="st11" points="191.9,239.9 195.6,244.2 195.2,241.3 197.5,239.6 			"/>
			<line class="st12" x1="211" y1="248" x2="195.2" y2="241.3"/>
			<polygon class="st11" points="234.3,241.1 237.9,245.3 237.5,242.4 239.8,240.7 			"/>
			<line class="st12" x1="251" y1="248" x2="237.5" y2="242.4"/>
			<polygon class="st11" points="276.6,242.2 280.3,246.4 279.8,243.5 282.1,241.8 			"/>
			<line class="st12" x1="291" y1="248" x2="279.8" y2="243.5"/>
			<polygon class="st11" points="318.9,243.4 322.7,247.5 322.1,244.6 324.4,242.8 			"/>
			<line class="st12" x1="331" y1="248" x2="322.1" y2="244.6"/>
			<polygon class="st11" points="361.2,244.5 365.1,248.6 364.5,245.7 366.7,243.8 			"/>
			<line class="st12" x1="371" y1="248" x2="364.5" y2="245.7"/>
			<polygon class="st11" points="403.5,245.7 407.5,249.6 406.8,246.7 409,244.8 			"/>
			<line class="st12" x1="411" y1="248" x2="406.8" y2="246.7"/>
			<polygon class="st11" points="445.8,246.8 450.1,250.4 449.2,247.6 451.2,245.5 			"/>
			<line class="st12" x1="451" y1="248" x2="449.2" y2="247.6"/>
			<polygon class="st11" points="488.1,248 491,249.4 490.1,248 491,246.6 			"/>
			<line class="st12" x1="491" y1="248" x2="490.1" y2="248"/>
			<polygon class="st11" points="530.4,249.2 531.6,248.3 530.8,248.3 530.4,247.7 			"/>
			<line class="st12" x1="531" y1="248" x2="530.8" y2="248.3"/>
			<polygon class="st11" points="572.7,250.3 572.2,247.1 571.5,248.7 569.8,248.9 			"/>
			<line class="st12" x1="571" y1="248" x2="571.5" y2="248.7"/>
			<polygon class="st11" points="615,251.5 612.9,246.3 612.4,249.2 609.6,250.1 			"/>
			<line class="st12" x1="611" y1="248" x2="612.4" y2="249.2"/>
			<polygon class="st11" points="657.4,252.6 654.8,247.7 654.5,250.6 651.8,251.7 			"/>
			<line class="st12" x1="651" y1="248" x2="654.5" y2="250.6"/>
			<polygon class="st11" points="699.7,253.8 696.9,248.9 696.7,251.8 694.1,253.1 			"/>
			<line class="st12" x1="691" y1="248" x2="696.7" y2="251.8"/>
			<polygon class="st11" points="742,254.9 739.1,250.1 739,253.1 736.4,254.4 			"/>
			<line class="st12" x1="731" y1="248" x2="739" y2="253.1"/>
			<polygon class="st11" points="784.3,256.1 781.3,251.3 781.3,254.3 778.7,255.6 			"/>
			<line class="st12" x1="771" y1="248" x2="781.3" y2="254.3"/>
			<polygon class="st11" points="826.6,257.2 823.6,252.5 823.6,255.5 821,256.8 			"/>
			<line class="st12" x1="811" y1="248" x2="823.6" y2="255.5"/>
			<polygon class="st11" points="868.9,258.4 865.8,253.7 865.9,256.6 863.3,258 			"/>
			<line class="st12" x1="851" y1="248" x2="865.9" y2="256.6"/>
			<polygon class="st11" points="911.2,259.5 908.1,254.9 908.2,257.8 905.6,259.2 			"/>
			<line class="st12" x1="891" y1="248" x2="908.2" y2="257.8"/>
			<polygon class="st11" points="953.5,260.7 950.4,256.1 950.5,259 947.9,260.4 			"/>
			<line class="st12" x1="931" y1="248" x2="950.5" y2="259"/>
			<polygon class="st11" points="995.8,261.9 992.7,257.2 992.8,260.1 990.2,261.6 			"/>
			<line class="st12" x1="971" y1="248" x2="992.8" y2="260.1"/>
			<polygon class="st11" points="-20.8,194.1 -17.2,198.4 -17.5,195.5 -15.2,193.9 			"/>
			<line class="st12" x1="11" y1="208" x2="-17.5" y2="195.5"/>
			<polygon class="st11" points="21.6,195.3 25.2,199.6 24.8,196.7 27.1,195 			"/>
			<line class="st12" x1="51" y1="208" x2="24.8" y2="196.7"/>
			<polygon class="st11" points="63.9,196.5 67.5,200.7 67.1,197.8 69.4,196.1 			"/>
			<line class="st12" x1="91" y1="208" x2="67.1" y2="197.8"/>
			<polygon class="st11" points="106.2,197.6 109.8,201.8 109.4,199 111.8,197.2 			"/>
			<line class="st12" x1="131" y1="208" x2="109.4" y2="199"/>
			<polygon class="st11" points="148.5,198.8 152.2,203 151.7,200.1 154.1,198.3 			"/>
			<line class="st12" x1="171" y1="208" x2="151.7" y2="200.1"/>
			<polygon class="st11" points="190.8,199.9 194.5,204.1 194,201.2 196.4,199.5 			"/>
			<line class="st12" x1="211" y1="208" x2="194" y2="201.2"/>
			<polygon class="st11" points="233.1,201.1 236.9,205.2 236.4,202.3 238.7,200.5 			"/>
			<line class="st12" x1="251" y1="208" x2="236.4" y2="202.3"/>
			<polygon class="st11" points="275.4,202.2 279.2,206.3 278.7,203.4 281,201.6 			"/>
			<line class="st12" x1="291" y1="208" x2="278.7" y2="203.4"/>
			<polygon class="st11" points="317.7,203.4 321.6,207.4 321,204.5 323.3,202.7 			"/>
			<line class="st12" x1="331" y1="208" x2="321" y2="204.5"/>
			<polygon class="st11" points="360,204.5 364,208.4 363.4,205.6 365.6,203.7 			"/>
			<line class="st12" x1="371" y1="208" x2="363.4" y2="205.6"/>
			<polygon class="st11" points="402.3,205.7 406.5,209.4 405.7,206.6 407.8,204.6 			"/>
			<line class="st12" x1="411" y1="208" x2="405.7" y2="206.6"/>
			<polygon class="st11" points="444.6,206.8 449.1,210.2 448.1,207.5 450,205.3 			"/>
			<line class="st12" x1="451" y1="208" x2="448.1" y2="207.5"/>
			<polygon class="st11" points="487,208 491,210 489.8,208 491,206 			"/>
			<line class="st12" x1="491" y1="208" x2="489.8" y2="208"/>
			<polygon class="st11" points="529.3,209.2 531.6,208.9 530.5,208.3 530.4,207.1 			"/>
			<line class="st12" x1="531" y1="208" x2="530.5" y2="208.3"/>
			<polygon class="st11" points="571.6,210.3 572.2,207.7 571.2,208.7 569.8,208.3 			"/>
			<line class="st12" x1="571" y1="208" x2="571.2" y2="208.7"/>
			<polygon class="st11" points="613.9,211.5 612.7,206.6 611.9,209 609.3,209.4 			"/>
			<line class="st12" x1="611" y1="208" x2="611.9" y2="209"/>
			<polygon class="st11" points="656.2,212.6 654.1,207.4 653.6,210.3 650.8,211.2 			"/>
			<line class="st12" x1="651" y1="208" x2="653.6" y2="210.3"/>
			<polygon class="st11" points="698.5,213.8 696.1,208.7 695.7,211.6 693,212.7 			"/>
			<line class="st12" x1="691" y1="208" x2="695.7" y2="211.6"/>
			<polygon class="st11" points="740.8,214.9 738.2,210 738,212.9 735.3,214.1 			"/>
			<line class="st12" x1="731" y1="208" x2="738" y2="212.9"/>
			<polygon class="st11" points="783.1,216.1 780.3,211.2 780.2,214.1 777.6,215.4 			"/>
			<line class="st12" x1="771" y1="208" x2="780.2" y2="214.1"/>
			<polygon class="st11" points="825.4,217.2 822.6,212.4 822.5,215.4 819.9,216.6 			"/>
			<line class="st12" x1="811" y1="208" x2="822.5" y2="215.4"/>
			<polygon class="st11" points="867.7,218.4 864.8,213.6 864.8,216.5 862.2,217.9 			"/>
			<line class="st12" x1="851" y1="208" x2="864.8" y2="216.5"/>
			<polygon class="st11" points="910.1,219.5 907.1,214.8 907.1,217.7 904.5,219.1 			"/>
			<line class="st12" x1="891" y1="208" x2="907.1" y2="217.7"/>
			<polygon class="st11" points="952.4,220.7 949.3,216 949.4,218.9 946.8,220.3 			"/>
			<line class="st12" x1="931" y1="208" x2="949.4" y2="218.9"/>
			<polygon class="st11" points="994.7,221.9 991.6,217.2 991.6,220.1 989.1,221.5 			"/>
			<line class="st12" x1="971" y1="208" x2="991.6" y2="220.1"/>
			<polygon class="st11" points="-21.9,154.1 -18.3,158.4 -18.7,155.5 -16.3,153.8 			"/>
			<line class="st12" x1="11" y1="168" x2="-18.7" y2="155.5"/>
			<polygon class="st11" points="20.4,155.3 24.1,159.5 23.6,156.6 26,154.9 			"/>
			<line class="st12" x1="51" y1="168" x2="23.6" y2="156.6"/>
			<polygon class="st11" points="62.7,156.5 66.4,160.7 66,157.8 68.3,156 			"/>
			<line class="st12" x1="91" y1="168" x2="66" y2="157.8"/>
			<polygon class="st11" points="105,157.6 108.7,161.8 108.3,158.9 110.6,157.1 			"/>
			<line class="st12" x1="131" y1="168" x2="108.3" y2="158.9"/>
			<polygon class="st11" points="147.3,158.8 151.1,162.9 150.6,160 152.9,158.3 			"/>
			<line class="st12" x1="171" y1="168" x2="150.6" y2="160"/>
			<polygon class="st11" points="189.6,159.9 193.4,164 192.9,161.2 195.2,159.3 			"/>
			<line class="st12" x1="211" y1="168" x2="192.9" y2="161.2"/>
			<polygon class="st11" points="231.9,161.1 235.8,165.1 235.2,162.3 237.5,160.4 			"/>
			<line class="st12" x1="251" y1="168" x2="235.2" y2="162.3"/>
			<polygon class="st11" points="274.3,162.2 278.2,166.2 277.6,163.4 279.8,161.5 			"/>
			<line class="st12" x1="291" y1="168" x2="277.6" y2="163.4"/>
			<polygon class="st11" points="316.6,163.4 320.6,167.3 319.9,164.4 322.1,162.5 			"/>
			<line class="st12" x1="331" y1="168" x2="319.9" y2="164.4"/>
			<polygon class="st11" points="358.9,164.5 363,168.3 362.2,165.5 364.4,163.5 			"/>
			<line class="st12" x1="371" y1="168" x2="362.2" y2="165.5"/>
			<polygon class="st11" points="401.2,165.7 405.5,169.3 404.6,166.5 406.6,164.4 			"/>
			<line class="st12" x1="411" y1="168" x2="404.6" y2="166.5"/>
			<polygon class="st11" points="443.5,166.8 448.1,170.1 447,167.4 448.8,165.1 			"/>
			<line class="st12" x1="451" y1="168" x2="447" y2="167.4"/>
			<polygon class="st11" points="485.8,168 490.8,170.5 489.3,168 490.8,165.5 			"/>
			<line class="st12" x1="491" y1="168" x2="489.3" y2="168"/>
			<polygon class="st11" points="528.1,169.2 531.6,169.4 530.1,168.3 530.4,166.6 			"/>
			<line class="st12" x1="531" y1="168" x2="530.1" y2="168.3"/>
			<polygon class="st11" points="570.4,170.3 572.2,168.3 570.8,168.7 569.8,167.7 			"/>
			<line class="st12" x1="571" y1="168" x2="570.8" y2="168.7"/>
			<polygon class="st11" points="612.7,171.5 612.7,167.1 611.5,169 609.3,168.9 			"/>
			<line class="st12" x1="611" y1="168" x2="611.5" y2="169"/>
			<polygon class="st11" points="655,172.6 653.6,167.2 652.7,170 649.9,170.5 			"/>
			<line class="st12" x1="651" y1="168" x2="652.7" y2="170"/>
			<polygon class="st11" points="697.4,173.8 695.3,168.6 694.8,171.4 692,172.3 			"/>
			<line class="st12" x1="691" y1="168" x2="694.8" y2="171.4"/>
			<polygon class="st11" points="739.7,174.9 737.3,169.9 736.9,172.7 734.2,173.8 			"/>
			<line class="st12" x1="731" y1="168" x2="736.9" y2="172.7"/>
			<polygon class="st11" points="782,176.1 779.4,171.1 779.2,174 776.5,175.1 			"/>
			<line class="st12" x1="771" y1="168" x2="779.2" y2="174"/>
			<polygon class="st11" points="824.3,177.2 821.6,172.3 821.4,175.2 818.7,176.4 			"/>
			<line class="st12" x1="811" y1="168" x2="821.4" y2="175.2"/>
			<polygon class="st11" points="866.6,178.4 863.8,173.5 863.7,176.4 861,177.7 			"/>
			<line class="st12" x1="851" y1="168" x2="863.7" y2="176.4"/>
			<polygon class="st11" points="908.9,179.5 906,174.7 906,177.6 903.3,178.9 			"/>
			<line class="st12" x1="891" y1="168" x2="906" y2="177.6"/>
			<polygon class="st11" points="951.2,180.7 948.3,175.9 948.2,178.8 945.6,180.2 			"/>
			<line class="st12" x1="931" y1="168" x2="948.2" y2="178.8"/>
			<polygon class="st11" points="993.5,181.9 990.6,177.1 990.5,180 987.9,181.4 			"/>
			<line class="st12" x1="971" y1="168" x2="990.5" y2="180"/>
			<polygon class="st11" points="-23.1,114.1 -19.4,118.3 -19.8,115.5 -17.5,113.7 			"/>
			<line class="st12" x1="11" y1="128" x2="-19.8" y2="115.5"/>
			<polygon class="st11" points="19.2,115.3 23,119.5 22.5,116.6 24.8,114.8 			"/>
			<line class="st12" x1="51" y1="128" x2="22.5" y2="116.6"/>
			<polygon class="st11" points="61.6,116.5 65.3,120.6 64.8,117.7 67.1,116 			"/>
			<line class="st12" x1="91" y1="128" x2="64.8" y2="117.7"/>
			<polygon class="st11" points="103.9,117.6 107.6,121.7 107.1,118.9 109.4,117.1 			"/>
			<line class="st12" x1="131" y1="128" x2="107.1" y2="118.9"/>
			<polygon class="st11" points="146.2,118.8 150,122.9 149.5,120 151.7,118.2 			"/>
			<line class="st12" x1="171" y1="128" x2="149.5" y2="120"/>
			<polygon class="st11" points="188.5,119.9 192.3,124 191.8,121.1 194,119.3 			"/>
			<line class="st12" x1="211" y1="128" x2="191.8" y2="121.1"/>
			<polygon class="st11" points="230.8,121.1 234.7,125.1 234.1,122.2 236.3,120.3 			"/>
			<line class="st12" x1="251" y1="128" x2="234.1" y2="122.2"/>
			<polygon class="st11" points="273.1,122.2 277.1,126.1 276.4,123.3 278.6,121.4 			"/>
			<line class="st12" x1="291" y1="128" x2="276.4" y2="123.3"/>
			<polygon class="st11" points="315.4,123.4 319.5,127.2 318.8,124.4 320.9,122.4 			"/>
			<line class="st12" x1="331" y1="128" x2="318.8" y2="124.4"/>
			<polygon class="st11" points="357.7,124.5 361.9,128.2 361.1,125.4 363.2,123.4 			"/>
			<line class="st12" x1="371" y1="128" x2="361.1" y2="125.4"/>
			<polygon class="st11" points="400,125.7 404.4,129.2 403.5,126.4 405.4,124.3 			"/>
			<line class="st12" x1="411" y1="128" x2="403.5" y2="126.4"/>
			<polygon class="st11" points="442.3,126.8 447,130 445.8,127.3 447.6,125 			"/>
			<line class="st12" x1="451" y1="128" x2="445.8" y2="127.3"/>
			<polygon class="st11" points="484.6,128 489.6,130.5 488.1,128 489.6,125.5 			"/>
			<line class="st12" x1="491" y1="128" x2="488.1" y2="128"/>
			<polygon class="st11" points="527,129.2 531.6,130 529.8,128.3 530.4,126 			"/>
			<line class="st12" x1="531" y1="128" x2="529.8" y2="128.3"/>
			<polygon class="st11" points="569.3,130.3 572.2,128.9 570.5,128.7 569.8,127.1 			"/>
			<line class="st12" x1="571" y1="128" x2="570.5" y2="128.7"/>
			<polygon class="st11" points="611.6,131.5 612.7,127.7 611.2,129 609.3,128.3 			"/>
			<line class="st12" x1="611" y1="128" x2="611.2" y2="129"/>
			<polygon class="st11" points="653.9,132.6 653.4,127.1 652,129.7 649.1,129.7 			"/>
			<line class="st12" x1="651" y1="128" x2="652" y2="129.7"/>
			<polygon class="st11" points="696.2,133.8 694.7,128.4 693.9,131.2 691,131.7 			"/>
			<line class="st12" x1="691" y1="128" x2="693.9" y2="131.2"/>
			<polygon class="st11" points="738.5,134.9 736.5,129.7 735.9,132.6 733.1,133.4 			"/>
			<line class="st12" x1="731" y1="128" x2="735.9" y2="132.6"/>
			<polygon class="st11" points="780.8,136.1 778.5,131 778.1,133.9 775.4,134.8 			"/>
			<line class="st12" x1="771" y1="128" x2="778.1" y2="133.9"/>
			<polygon class="st11" points="823.1,137.2 820.7,132.2 820.3,135.1 817.6,136.2 			"/>
			<line class="st12" x1="811" y1="128" x2="820.3" y2="135.1"/>
			<polygon class="st11" points="865.4,138.4 862.8,133.4 862.6,136.3 859.9,137.5 			"/>
			<line class="st12" x1="851" y1="128" x2="862.6" y2="136.3"/>
			<polygon class="st11" points="907.7,139.5 905,134.6 904.9,137.6 902.2,138.8 			"/>
			<line class="st12" x1="891" y1="128" x2="904.9" y2="137.6"/>
			<polygon class="st11" points="950.1,140.7 947.3,135.8 947.1,138.8 944.5,140 			"/>
			<line class="st12" x1="931" y1="128" x2="947.1" y2="138.8"/>
			<polygon class="st11" points="992.4,141.9 989.5,137 989.4,140 986.8,141.2 			"/>
			<line class="st12" x1="971" y1="128" x2="989.4" y2="140"/>
			<polygon class="st11" points="-24.2,74.1 -20.5,78.3 -21,75.4 -18.6,73.6 			"/>
			<line class="st12" x1="11" y1="88" x2="-21" y2="75.4"/>
			<polygon class="st11" points="18.1,75.3 21.9,79.4 21.4,76.6 23.7,74.8 			"/>
			<line class="st12" x1="51" y1="88" x2="21.4" y2="76.6"/>
			<polygon class="st11" points="60.4,76.5 64.2,80.6 63.7,77.7 66,75.9 			"/>
			<line class="st12" x1="91" y1="88" x2="63.7" y2="77.7"/>
			<polygon class="st11" points="102.7,77.6 106.5,81.7 106,78.8 108.3,77 			"/>
			<line class="st12" x1="131" y1="88" x2="106" y2="78.8"/>
			<polygon class="st11" points="145,78.8 148.9,82.8 148.3,79.9 150.6,78.1 			"/>
			<line class="st12" x1="171" y1="88" x2="148.3" y2="79.9"/>
			<polygon class="st11" points="187.3,79.9 191.3,83.9 190.6,81 192.9,79.2 			"/>
			<line class="st12" x1="211" y1="88" x2="190.6" y2="81"/>
			<polygon class="st11" points="229.6,81.1 233.6,85 233,82.2 235.2,80.2 			"/>
			<line class="st12" x1="251" y1="88" x2="233" y2="82.2"/>
			<polygon class="st11" points="271.9,82.2 276,86.1 275.3,83.2 277.5,81.3 			"/>
			<line class="st12" x1="291" y1="88" x2="275.3" y2="83.2"/>
			<polygon class="st11" points="314.3,83.4 318.4,87.1 317.6,84.3 319.7,82.3 			"/>
			<line class="st12" x1="331" y1="88" x2="317.6" y2="84.3"/>
			<polygon class="st11" points="356.6,84.5 360.8,88.1 360,85.4 362,83.3 			"/>
			<line class="st12" x1="371" y1="88" x2="360" y2="85.4"/>
			<polygon class="st11" points="398.9,85.7 403.3,89.1 402.3,86.3 404.3,84.2 			"/>
			<line class="st12" x1="411" y1="88" x2="402.3" y2="86.3"/>
			<polygon class="st11" points="441.2,86.8 445.9,89.9 444.7,87.3 446.4,84.9 			"/>
			<line class="st12" x1="451" y1="88" x2="444.7" y2="87.3"/>
			<polygon class="st11" points="483.5,88 488.5,90.5 487,88 488.5,85.5 			"/>
			<line class="st12" x1="491" y1="88" x2="487" y2="88"/>
			<polygon class="st11" points="525.8,89.2 531.2,90.5 529.2,88.4 530.1,85.6 			"/>
			<line class="st12" x1="531" y1="88" x2="529.2" y2="88.4"/>
			<polygon class="st11" points="568.1,90.3 572.2,89.4 570.1,88.7 569.8,86.6 			"/>
			<line class="st12" x1="571" y1="88" x2="570.1" y2="88.7"/>
			<polygon class="st11" points="610.4,91.5 612.7,88.3 610.8,89 609.3,87.7 			"/>
			<line class="st12" x1="611" y1="88" x2="610.8" y2="89"/>
			<polygon class="st11" points="652.7,92.6 653.3,87.1 651.5,89.4 648.7,88.9 			"/>
			<line class="st12" x1="651" y1="88" x2="651.5" y2="89.4"/>
			<polygon class="st11" points="695,93.8 694.2,88.2 693,90.9 690.1,91.1 			"/>
			<line class="st12" x1="691" y1="88" x2="693" y2="90.9"/>
			<polygon class="st11" points="737.4,94.9 735.8,89.6 735,92.3 732.1,92.9 			"/>
			<line class="st12" x1="731" y1="88" x2="735" y2="92.3"/>
			<polygon class="st11" points="779.7,96.1 777.7,90.8 777.1,93.7 774.3,94.5 			"/>
			<line class="st12" x1="771" y1="88" x2="777.1" y2="93.7"/>
			<polygon class="st11" points="822,97.2 819.8,92.1 819.3,95 816.5,95.9 			"/>
			<line class="st12" x1="811" y1="88" x2="819.3" y2="95"/>
			<polygon class="st11" points="864.3,98.4 861.9,93.3 861.5,96.2 858.8,97.3 			"/>
			<line class="st12" x1="851" y1="88" x2="861.5" y2="96.2"/>
			<polygon class="st11" points="906.6,99.5 904.1,94.6 903.8,97.5 901.1,98.6 			"/>
			<line class="st12" x1="891" y1="88" x2="903.8" y2="97.5"/>
			<polygon class="st11" points="948.9,100.7 946.3,95.8 946,98.7 943.4,99.8 			"/>
			<line class="st12" x1="931" y1="88" x2="946" y2="98.7"/>
			<polygon class="st11" points="991.2,101.9 988.5,97 988.3,99.9 985.7,101.1 			"/>
			<line class="st12" x1="971" y1="88" x2="988.3" y2="99.9"/>
			<polygon class="st11" points="-25.4,34.1 -21.6,38.3 -22.1,35.4 -19.8,33.6 			"/>
			<line class="st12" x1="11" y1="48" x2="-22.1" y2="35.4"/>
			<polygon class="st11" points="16.9,35.3 20.8,39.4 20.2,36.5 22.5,34.7 			"/>
			<line class="st12" x1="51" y1="48" x2="20.2" y2="36.5"/>
			<polygon class="st11" points="59.2,36.5 63.1,40.5 62.5,37.7 64.8,35.8 			"/>
			<line class="st12" x1="91" y1="48" x2="62.5" y2="37.7"/>
			<polygon class="st11" points="101.6,37.6 105.4,41.6 104.9,38.8 107.1,36.9 			"/>
			<line class="st12" x1="131" y1="48" x2="104.9" y2="38.8"/>
			<polygon class="st11" points="143.9,38.8 147.8,42.7 147.2,39.9 149.4,38 			"/>
			<line class="st12" x1="171" y1="48" x2="147.2" y2="39.9"/>
			<polygon class="st11" points="186.2,39.9 190.2,43.8 189.5,41 191.7,39.1 			"/>
			<line class="st12" x1="211" y1="48" x2="189.5" y2="41"/>
			<polygon class="st11" points="228.5,41.1 232.5,44.9 231.8,42.1 234,40.2 			"/>
			<line class="st12" x1="251" y1="48" x2="231.8" y2="42.1"/>
			<polygon class="st11" points="270.8,42.2 274.9,46 274.2,43.2 276.3,41.2 			"/>
			<line class="st12" x1="291" y1="48" x2="274.2" y2="43.2"/>
			<polygon class="st11" points="313.1,43.4 317.3,47.1 316.5,44.3 318.6,42.2 			"/>
			<line class="st12" x1="331" y1="48" x2="316.5" y2="44.3"/>
			<polygon class="st11" points="355.4,44.5 359.8,48.1 358.8,45.3 360.8,43.2 			"/>
			<line class="st12" x1="371" y1="48" x2="358.8" y2="45.3"/>
			<polygon class="st11" points="397.7,45.7 402.2,49 401.2,46.3 403.1,44.1 			"/>
			<line class="st12" x1="411" y1="48" x2="401.2" y2="46.3"/>
			<polygon class="st11" points="440,46.8 444.7,49.9 443.5,47.2 445.3,44.9 			"/>
			<line class="st12" x1="451" y1="48" x2="443.5" y2="47.2"/>
			<polygon class="st11" points="482.3,48 487.3,50.5 485.8,48 487.3,45.5 			"/>
			<line class="st12" x1="491" y1="48" x2="485.8" y2="48"/>
			<polygon class="st11" points="524.6,49.2 530,50.7 528.1,48.5 529.1,45.8 			"/>
			<line class="st12" x1="531" y1="48" x2="528.1" y2="48.5"/>
			<polygon class="st11" points="567,50.3 572.2,50 569.8,48.7 569.8,46 			"/>
			<line class="st12" x1="571" y1="48" x2="569.8" y2="48.7"/>
			<polygon class="st11" points="609.3,51.5 612.7,48.9 610.5,49 609.3,47.1 			"/>
			<line class="st12" x1="611" y1="48" x2="610.5" y2="49"/>
			<polygon class="st11" points="651.6,52.6 653.3,47.7 651.2,49.4 648.7,48.3 			"/>
			<line class="st12" x1="651" y1="48" x2="651.2" y2="49.4"/>
			<polygon class="st11" points="693.9,53.8 693.9,48.2 692.3,50.6 689.4,50.4 			"/>
			<line class="st12" x1="691" y1="48" x2="692.3" y2="50.6"/>
			<polygon class="st11" points="736.2,54.9 735.2,49.4 734.1,52.1 731.2,52.4 			"/>
			<line class="st12" x1="731" y1="48" x2="734.1" y2="52.1"/>
			<polygon class="st11" points="778.5,56.1 776.9,50.7 776.1,53.5 773.3,54.1 			"/>
			<line class="st12" x1="771" y1="48" x2="776.1" y2="53.5"/>
			<polygon class="st11" points="820.8,57.2 818.9,52 818.3,54.8 815.5,55.6 			"/>
			<line class="st12" x1="811" y1="48" x2="818.3" y2="54.8"/>
			<polygon class="st11" points="863.1,58.4 861,53.2 860.5,56.1 857.7,57 			"/>
			<line class="st12" x1="851" y1="48" x2="860.5" y2="56.1"/>
			<polygon class="st11" points="905.4,59.5 903.1,54.5 902.7,57.4 900,58.4 			"/>
			<line class="st12" x1="891" y1="48" x2="902.7" y2="57.4"/>
			<polygon class="st11" points="947.7,60.7 945.3,55.7 945,58.6 942.2,59.7 			"/>
			<line class="st12" x1="931" y1="48" x2="945" y2="58.6"/>
			<polygon class="st11" points="990.1,61.9 987.5,56.9 987.2,59.8 984.5,60.9 			"/>
			<line class="st12" x1="971" y1="48" x2="987.2" y2="59.8"/>
			<polygon class="st11" points="-26.5,-5.9 -22.7,-1.8 -23.2,-4.6 -21,-6.5 			"/>
			<line class="st12" x1="11" y1="8" x2="-23.2" y2="-4.6"/>
			<polygon class="st11" points="15.8,-4.7 19.6,-0.7 19.1,-3.5 21.3,-5.4 			"/>
			<line class="st12" x1="51" y1="8" x2="19.1" y2="-3.5"/>
			<polygon class="st11" points="58.1,-3.5 62,0.5 61.4,-2.4 63.6,-4.2 			"/>
			<line class="st12" x1="91" y1="8" x2="61.4" y2="-2.4"/>
			<polygon class="st11" points="100.4,-2.4 104.3,1.6 103.7,-1.3 105.9,-3.2 			"/>
			<line class="st12" x1="131" y1="8" x2="103.7" y2="-1.3"/>
			<polygon class="st11" points="142.7,-1.2 146.7,2.7 146,-0.2 148.2,-2.1 			"/>
			<line class="st12" x1="171" y1="8" x2="146" y2="-0.2"/>
			<polygon class="st11" points="185,-0.1 189.1,3.8 188.4,1 190.5,-1 			"/>
			<line class="st12" x1="211" y1="8" x2="188.4" y2="1"/>
			<polygon class="st11" points="227.3,1.1 231.4,4.9 230.7,2.1 232.8,0.1 			"/>
			<line class="st12" x1="251" y1="8" x2="230.7" y2="2.1"/>
			<polygon class="st11" points="269.6,2.2 273.8,5.9 273,3.1 275.1,1.1 			"/>
			<line class="st12" x1="291" y1="8" x2="273" y2="3.1"/>
			<polygon class="st11" points="311.9,3.4 316.2,7 315.4,4.2 317.4,2.1 			"/>
			<line class="st12" x1="331" y1="8" x2="315.4" y2="4.2"/>
			<polygon class="st11" points="354.3,4.5 358.6,8 357.7,5.2 359.7,3.1 			"/>
			<line class="st12" x1="371" y1="8" x2="357.7" y2="5.2"/>
			<polygon class="st11" points="396.6,5.7 401.1,8.9 400,6.2 401.9,4 			"/>
			<line class="st12" x1="411" y1="8" x2="400" y2="6.2"/>
			<polygon class="st11" points="438.9,6.8 443.6,9.8 442.4,7.2 444.1,4.8 			"/>
			<line class="st12" x1="451" y1="8" x2="442.4" y2="7.2"/>
			<polygon class="st11" points="481.2,8 486.2,10.5 484.7,8 486.2,5.5 			"/>
			<line class="st12" x1="491" y1="8" x2="484.7" y2="8"/>
			<polygon class="st11" points="523.5,9.2 528.8,10.9 527,8.6 528.1,5.9 			"/>
			<line class="st12" x1="531" y1="8" x2="527" y2="8.6"/>
			<polygon class="st11" points="565.8,10.3 571.4,10.6 569,8.9 569.4,6 			"/>
			<line class="st12" x1="571" y1="8" x2="569" y2="8.9"/>
			<polygon class="st11" points="608.1,11.5 612.7,9.4 610.1,9 609.3,6.6 			"/>
			<line class="st12" x1="611" y1="8" x2="610.1" y2="9"/>
			<polygon class="st11" points="650.4,12.6 653.3,8.3 650.8,9.4 648.7,7.7 			"/>
			<line class="st12" x1="651" y1="8" x2="650.8" y2="9.4"/>
			<polygon class="st11" points="692.7,13.8 693.7,8.3 691.7,10.4 688.9,9.7 			"/>
			<line class="st12" x1="691" y1="8" x2="691.7" y2="10.4"/>
			<polygon class="st11" points="735,14.9 734.7,9.3 733.3,11.9 730.4,11.9 			"/>
			<line class="st12" x1="731" y1="8" x2="733.3" y2="11.9"/>
			<polygon class="st11" points="777.4,16.1 776.2,10.6 775.2,13.3 772.3,13.7 			"/>
			<line class="st12" x1="771" y1="8" x2="775.2" y2="13.3"/>
			<polygon class="st11" points="819.7,17.2 818.1,11.9 817.3,14.7 814.4,15.3 			"/>
			<line class="st12" x1="811" y1="8" x2="817.3" y2="14.7"/>
			<polygon class="st11" points="862,18.4 860.1,13.1 859.4,16 856.6,16.8 			"/>
			<line class="st12" x1="851" y1="8" x2="859.4" y2="16"/>
			<polygon class="st11" points="904.3,19.5 902.1,14.4 901.6,17.2 898.9,18.2 			"/>
			<line class="st12" x1="891" y1="8" x2="901.6" y2="17.2"/>
			<polygon class="st11" points="946.6,20.7 944.3,15.6 943.9,18.5 941.1,19.5 			"/>
			<line class="st12" x1="931" y1="8" x2="943.9" y2="18.5"/>
			<polygon class="st11" points="988.9,21.9 986.5,16.8 986.1,19.7 983.4,20.8 			"/>
			<line class="st12" x1="971" y1="8" x2="986.1" y2="19.7"/>
		</g>
		<rect class="st0" width="1" height="696"/>
		<rect x="981" class="st0" width="1" height="696"/>
		<rect class="st0" width="982" height="1"/>
		<rect y="695" class="st0" width="982" height="1"/>
	</g>
</g>
<rect x="195.4" y="22.2" class="st13" width="586.2" height="95.8"/>
<path d="M216.7,51.2H242l-12.7,25.4L216.7,51.2z M244.8,48.9c0.1-0.1,0.2-0.5,0.2-0.6c0-0.3,0-0.4-1.1-0.4h-31.9
	c-1.1,0-1.1,0-1.1,0.4c0,0.2,0.1,0.5,0.2,0.6l15.6,31.2c0.3,0.6,0.5,0.9,1.2,0.9c0.8,0,0.9-0.3,1.2-0.9L244.8,48.9z"/>
<path d="M262.6,90.5c0-0.1,0-0.2-0.8-1c-5.8-5.8-7.3-14.6-7.3-21.6c0-8,1.8-16.1,7.4-21.8c0.6-0.6,0.6-0.6,0.6-0.8
	c0-0.3-0.2-0.5-0.5-0.5c-0.5,0-4.6,3.1-7.3,9c-2.4,5.1-2.9,10.2-2.9,14.1c0,3.6,0.5,9.2,3,14.4c2.8,5.7,6.7,8.7,7.2,8.7
	C262.4,91,262.6,90.9,262.6,90.5z"/>
<path d="M280.7,65.5c0.3-1.2,1.3-5.5,4.6-5.5c0.2,0,1.3,0,2.3,0.6c-1.3,0.2-2.2,1.4-2.2,2.5c0,0.7,0.5,1.6,1.8,1.6
	c1,0,2.5-0.8,2.5-2.7c0-2.4-2.7-3-4.3-3c-2.7,0-4.3,2.4-4.9,3.5c-1.2-3-3.6-3.5-5-3.5c-4.8,0-7.4,6-7.4,7.1c0,0.5,0.5,0.5,0.6,0.5
	c0.4,0,0.5-0.1,0.6-0.5c1.6-4.9,4.6-6.1,6.2-6.1c0.9,0,2.5,0.4,2.5,3.1c0,1.4-0.8,4.5-2.5,11C274.6,77,273,79,271,79
	c-0.3,0-1.3,0-2.3-0.6c1.2-0.2,2.2-1.2,2.2-2.5c0-1.2-1-1.6-1.7-1.6c-1.4,0-2.5,1.2-2.5,2.7c0,2.1,2.3,3,4.3,3c3,0,4.7-3.2,4.9-3.5
	c0.6,1.7,2.2,3.5,5,3.5c4.8,0,7.4-6,7.4-7.1c0-0.5-0.4-0.5-0.6-0.5c-0.4,0-0.5,0.2-0.6,0.5c-1.5,4.9-4.7,6.1-6.1,6.1
	c-1.8,0-2.5-1.5-2.5-3c0-1,0.3-2,0.8-4.1L280.7,65.5z"/>
<path d="M301.1,55.8c0.5-0.5,2-1.6,2.5-2.1c2.1-1.9,4.1-3.8,4.1-6.8c0-4-3.4-6.6-7.6-6.6c-4,0-6.7,3.1-6.7,6.1
	c0,1.7,1.3,1.9,1.8,1.9c0.7,0,1.8-0.5,1.8-1.8c0-1.8-1.7-1.8-2.1-1.8c1-2.5,3.2-3.3,4.9-3.3c3.1,0,4.8,2.7,4.8,5.5
	c0,3.5-2.5,6.1-6.4,10.2l-4.2,4.4c-0.4,0.4-0.4,0.4-0.4,1.3h13.3l1-6h-1c-0.1,0.7-0.4,2.4-0.8,3c-0.2,0.3-2.8,0.3-3.3,0.3h-6
	L301.1,55.8z"/>
<path d="M352.4,68.8c0.8,0,1.6,0,1.6-0.9c0-0.9-0.8-0.9-1.6-0.9h-25c-0.8,0-1.6,0-1.6,0.9c0,0.9,0.8,0.9,1.6,0.9H352.4z"/>
<path d="M417,61.9c0.2-0.6,0.2-0.7,0.2-1.1c0-0.8-0.6-1.2-1.3-1.2c-0.5,0-1.2,0.3-1.6,1c-0.1,0.2-0.5,1.7-0.6,2.5
	c-0.3,1.2-0.6,2.4-0.9,3.7l-2.1,8.3c-0.2,0.7-2.2,3.9-5.2,3.9c-2.4,0-2.9-2-2.9-3.7c0-2.1,0.8-5,2.4-9.1c0.7-1.9,0.9-2.4,0.9-3.3
	c0-2.1-1.5-3.8-3.8-3.8c-4.4,0-6.1,6.7-6.1,7.1c0,0.5,0.5,0.5,0.6,0.5c0.5,0,0.5-0.1,0.7-0.8c1.2-4.3,3.1-5.7,4.7-5.7
	c0.4,0,1.2,0,1.2,1.5c0,1.2-0.5,2.4-0.8,3.2c-1.8,4.9-2.7,7.5-2.7,9.7c0,4.1,2.9,5.5,5.6,5.5c1.8,0,3.4-0.8,4.7-2.1
	c-0.6,2.4-1.2,4.7-3,7.1c-1.2,1.6-3,2.9-5.1,2.9c-0.6,0-2.7-0.1-3.5-1.9c0.7,0,1.3,0,2-0.6c0.5-0.4,0.9-1,0.9-1.9
	c0-1.4-1.2-1.6-1.7-1.6c-1.1,0-2.6,0.7-2.6,3c0,2.3,2,4,4.9,4c4.8,0,9.5-4.2,10.8-9.4L417,61.9z M383.5,65.5
	c0.3-1.2,1.3-5.5,4.6-5.5c0.2,0,1.3,0,2.3,0.6c-1.3,0.2-2.2,1.4-2.2,2.5c0,0.7,0.5,1.6,1.8,1.6c1,0,2.5-0.8,2.5-2.7
	c0-2.4-2.7-3-4.3-3c-2.7,0-4.3,2.4-4.9,3.5c-1.2-3-3.6-3.5-5-3.5c-4.8,0-7.4,6-7.4,7.1c0,0.5,0.5,0.5,0.6,0.5c0.4,0,0.5-0.1,0.6-0.5
	c1.6-4.9,4.6-6.1,6.2-6.1c0.9,0,2.5,0.4,2.5,3.1c0,1.4-0.8,4.5-2.5,11c-0.7,2.9-2.4,4.8-4.4,4.8c-0.3,0-1.3,0-2.3-0.6
	c1.2-0.2,2.2-1.2,2.2-2.5c0-1.2-1-1.6-1.7-1.6c-1.4,0-2.5,1.2-2.5,2.7c0,2.1,2.3,3,4.3,3c3,0,4.7-3.2,4.9-3.5c0.6,1.7,2.2,3.5,5,3.5
	c4.8,0,7.4-6,7.4-7.1c0-0.5-0.4-0.5-0.6-0.5c-0.4,0-0.5,0.2-0.6,0.5c-1.5,4.9-4.7,6.1-6.1,6.1c-1.8,0-2.5-1.5-2.5-3
	c0-1,0.3-2,0.8-4.1L383.5,65.5z"/>
<path d="M762.7,64.5V74c0,0.8,0,0.9-0.5,1.7c-1.4,2.2-3.5,3.2-5.5,3.2c-2.1,0-3.7-1.2-4.9-3c-1.2-1.9-1.3-4.5-1.3-6.4
	c0-1.7,0.1-4.5,1.4-6.6c1-1.4,2.7-3,5.2-3c1.6,0,3.6,0.7,5,2.8C762.7,63.6,762.7,63.7,762.7,64.5z M762.7,76.9v3l6.8-0.5V78
	c-3.2,0-3.6-0.3-3.6-2.6v-28l-6.7,0.5v1.4c3.2,0,3.6,0.3,3.6,2.6v10c-1.3-1.7-3.3-2.9-5.8-2.9c-5.5,0-10.3,4.5-10.3,10.5
	c0,5.9,4.5,10.4,9.8,10.4C759.4,80,761.5,78.4,762.7,76.9z M740.5,47.4l-6.7,0.5v1.4c3.2,0,3.6,0.3,3.6,2.6v24
	c0,2.1-0.5,2.1-3.6,2.1v1.4c1.5,0,4-0.1,5.1-0.1c1.2,0,3.4,0.1,5.1,0.1V78c-3.1,0-3.6,0-3.6-2.1V47.4z M716.9,68.8h12.9
	c1,0,1.2,0,1.2-1c0-4.6-2.5-9.1-8.3-9.1c-5.4,0-9.6,4.8-9.6,10.5c0,6.2,4.9,10.7,10.2,10.7c5.6,0,7.7-5.1,7.7-6
	c0-0.5-0.4-0.6-0.6-0.6c-0.4,0-0.5,0.3-0.6,0.6c-1.6,4.8-5.8,4.8-6.2,4.8c-2.3,0-4.2-1.4-5.2-3.1C716.9,73.5,716.9,70.5,716.9,68.8z
	 M716.9,67.8c0.3-6.9,4.2-8,5.7-8c4.8,0,5.2,6.2,5.2,8H716.9z M701.3,61c2.1,0,2.4,0.6,2.4,2.5v12.5c0,2.1-0.5,2.1-3.6,2.1v1.4
	c1.5,0,4-0.1,5.1-0.1c1.2,0,3.4,0.1,5.1,0.1V78c-3.1,0-3.6,0-3.6-2.1V59l-5.8,0.4c-0.7,0-0.8,0.1-0.8,0.1c-0.1,0-0.2,0-0.8,0h-5.5
	v-5.2c0-4.6,4-6.4,6.8-6.4c1.4,0,3,0.5,4,1.5c-1.9,0.1-2.2,1.4-2.2,2.1c0,1.5,1.2,2.1,2.1,2.1c1.1,0,2.1-0.7,2.1-2.1
	c0-2.7-2.5-4.7-6-4.7c-4.3,0-9.8,2.4-9.8,7.4v5.3h-3.6V61h3.6v15c0,2.1-0.5,2.1-3.6,2.1v1.4c1.5,0,4-0.1,5.1-0.1
	c1.2,0,3.4,0.1,5.1,0.1V78c-3.1,0-3.6,0-3.6-2.1V61H701.3z M660.3,64.1V59l-6.4,0.5V61c3.2,0,3.6,0.3,3.6,2.6v12.4
	c0,2.1-0.5,2.1-3.6,2.1v1.4c1.8,0,4-0.1,5.3-0.1c1.8,0,4,0,5.9,0.1V78h-1c-3.4,0-3.5-0.5-3.5-2.2v-7.1c0-4.6,1.9-8.7,5.5-8.7
	c0.3,0,0.4,0,0.5,0c-0.1,0-1.1,0.6-1.1,1.8c0,1.3,1,2,2,2c0.8,0,2-0.6,2-2c0-1.5-1.4-2.8-3.4-2.8C662.6,59,660.9,62.1,660.3,64.1z
	 M641,78.8c-2,0-4-1-5.3-3.1c-1.2-2-1.2-4.9-1.2-6.5c0-1.8,0-4.3,1.1-6.3c1.2-2.1,3.4-3.1,5.3-3.1c2,0,4,1,5.2,3
	c1.2,2,1.2,4.7,1.2,6.4c0,1.7,0,4.2-1,6.2C645.4,77.5,643.3,78.8,641,78.8z M651.2,69.6c0-5.9-4.6-10.8-10.2-10.8
	c-5.8,0-10.3,5-10.3,10.8c0,6,4.8,10.4,10.2,10.4C646.6,80,651.2,75.4,651.2,69.6z M619.5,61h6.6v-1.4h-6.6v-8.5h-1.2
	c0,3.8-1.4,8.7-6,8.9v1h3.9v12.7c0,5.7,4.3,6.2,6,6.2c3.3,0,4.6-3.3,4.6-6.2v-2.6h-1.2v2.5c0,3.4-1.4,5.2-3.1,5.2
	c-3.1,0-3.1-4.2-3.1-5V61z M596.4,69.4c0-7.5,3.8-9.5,6.2-9.5c0.4,0,3.3,0,4.9,1.7c-1.9,0.1-2.2,1.5-2.2,2.1c0,1.2,0.8,2.1,2.1,2.1
	c1.2,0,2.1-0.8,2.1-2.2c0-3.1-3.5-4.9-7.1-4.9c-5.8,0-10,5-10,10.7c0,5.9,4.6,10.5,9.9,10.5c6.2,0,7.7-5.5,7.7-6
	c0-0.5-0.5-0.5-0.6-0.5c-0.4,0-0.5,0.2-0.6,0.5c-1.3,4.3-4.3,4.9-6.1,4.9C600.5,78.8,596.4,76.8,596.4,69.4z M575.6,68.8h12.9
	c1,0,1.2,0,1.2-1c0-4.6-2.5-9.1-8.3-9.1c-5.4,0-9.6,4.8-9.6,10.5c0,6.2,4.9,10.7,10.2,10.7c5.6,0,7.7-5.1,7.7-6
	c0-0.5-0.4-0.6-0.6-0.6c-0.4,0-0.5,0.3-0.6,0.6c-1.6,4.8-5.8,4.8-6.2,4.8c-2.3,0-4.2-1.4-5.2-3.1C575.6,73.5,575.6,70.5,575.6,68.8z
	 M575.6,67.8c0.3-6.9,4.2-8,5.7-8c4.8,0,5.2,6.2,5.2,8H575.6z M566.6,64.1c0.4-1.1,1.2-3,4.2-3.1v-1.4c-1.1,0.1-2.4,0.1-3.5,0.1
	c-1.1,0-3.2-0.1-4-0.1V61c1.7,0,2.2,1.1,2.2,2c0,0.4-0.1,0.6-0.3,1.1l-4.7,11.8L555.4,63c-0.3-0.6-0.3-0.7-0.3-0.8
	c0-1.2,1.8-1.2,2.6-1.2v-1.4c-1.4,0-4,0.1-5,0.1c-1.2,0-3.1,0-4.5-0.1V61c2.9,0,3.1,0.3,3.7,1.7l6.7,16.4c0.3,0.6,0.4,0.9,1,0.9
	c0.6,0,0.8-0.4,1-0.9L566.6,64.1z M524,68.4V73c0,4.4-3.3,6-5.4,6c-2.3,0-4.2-1.6-4.2-3.9C514.4,72.5,516.3,68.7,524,68.4z
	 M524.3,75.9c0.2,1.8,1.4,3.8,3.6,3.8c1,0,3.8-0.6,3.8-4.4v-2.6h-1.2v2.6c0,2.7-1.2,3-1.7,3c-1.5,0-1.7-2.1-1.7-2.3v-9.2
	c0-1.9,0-3.7-1.7-5.5c-1.8-1.8-4.1-2.5-6.3-2.5c-3.8,0-7,2.2-7,5.2c0,1.4,0.9,2.2,2.1,2.2c1.3,0,2.1-0.9,2.1-2.1
	c0-0.6-0.2-2.1-2.4-2.1c1.2-1.6,3.5-2.1,5-2.1c2.3,0,4.9,1.8,4.9,5.9v1.7c-2.4,0.1-5.6,0.3-8.5,1.7c-3.5,1.6-4.6,4-4.6,6
	c0,3.7,4.5,4.9,7.4,4.9C521.3,80,523.4,78.1,524.3,75.9z M484.9,70.5c1,0.2,4.8,0.9,4.8,4.2c0,2.4-1.6,4.2-5.2,4.2
	c-3.9,0-5.5-2.6-6.4-6.6c-0.1-0.6-0.2-0.8-0.6-0.8c-0.6,0-0.6,0.3-0.6,1.2v6.1c0,0.8,0,1.1,0.5,1.1c0.2,0,0.3,0,1.2-0.9
	c0.1-0.1,0.1-0.2,0.9-1.1c2,1.9,4.1,2,5.1,2c5.3,0,7.4-3.1,7.4-6.4c0-2.4-1.4-3.8-1.9-4.4c-1.5-1.5-3.3-1.8-5.3-2.2
	c-2.6-0.5-5.7-1.1-5.7-3.8c0-1.6,1.2-3.5,5.2-3.5c5.1,0,5.3,4.2,5.4,5.6c0,0.4,0.5,0.4,0.6,0.4c0.6,0,0.6-0.2,0.6-1.1v-4.7
	c0-0.8,0-1.1-0.5-1.1c-0.2,0-0.3,0-0.9,0.6c-0.1,0.2-0.6,0.6-0.8,0.7c-1.8-1.3-3.6-1.3-4.3-1.3c-5.6,0-7.4,3.1-7.4,5.7
	c0,1.6,0.7,2.9,2,3.9C480.2,69.6,481.5,69.9,484.9,70.5z M467.2,68.4V73c0,4.4-3.3,6-5.4,6c-2.3,0-4.2-1.6-4.2-3.9
	C457.7,72.5,459.6,68.7,467.2,68.4z M467.5,75.9c0.2,1.8,1.4,3.8,3.6,3.8c1,0,3.8-0.6,3.8-4.4v-2.6h-1.2v2.6c0,2.7-1.2,3-1.7,3
	c-1.5,0-1.7-2.1-1.7-2.3v-9.2c0-1.9,0-3.7-1.7-5.5c-1.8-1.8-4.1-2.5-6.3-2.5c-3.8,0-7,2.2-7,5.2c0,1.4,0.9,2.2,2.1,2.2
	c1.3,0,2.1-0.9,2.1-2.1c0-0.6-0.2-2.1-2.4-2.1c1.2-1.6,3.5-2.1,5-2.1c2.3,0,4.9,1.8,4.9,5.9v1.7c-2.4,0.1-5.6,0.3-8.5,1.7
	c-3.5,1.6-4.6,4-4.6,6c0,3.7,4.5,4.9,7.4,4.9C464.5,80,466.7,78.1,467.5,75.9z M432.2,67.9c0-3.6-0.5-9.2-3-14.4
	c-2.8-5.7-6.7-8.7-7.2-8.7c-0.3,0-0.5,0.2-0.5,0.5c0,0.1,0,0.2,0.9,1.1c4.5,4.6,7.2,11.9,7.2,21.6c0,7.9-1.7,16-7.4,21.8
	c-0.6,0.6-0.6,0.6-0.6,0.8c0,0.3,0.2,0.5,0.5,0.5c0.5,0,4.6-3.1,7.3-9C431.6,76.9,432.2,71.8,432.2,67.9z"/>
</svg>
